/* XPM */
static char *d33641fba26f45db898b82d18cf87686JGZuMTVIVf2pnNCc[] = {
/* columns rows colors chars-per-pixel */
"64 64 118 2 ",
"   c #0F0D0C",
".  c #130E0D",
"X  c #1B0E0C",
"o  c #15100F",
"O  c #1A110F",
"+  c #161110",
"@  c #1C1411",
"#  c #1F1815",
"$  c #200F0A",
"%  c #22120E",
"&  c #29150F",
"*  c #221612",
"=  c #291611",
"-  c #251915",
";  c #2B1B15",
":  c #251C19",
">  c #2B1E19",
",  c #321D15",
"<  c #321F18",
"1  c #391F18",
"2  c #2E211C",
"3  c #342017",
"4  c #392016",
"5  c #33231D",
"6  c #3A261D",
"7  c #3D281F",
"8  c #342621",
"9  c #3A2720",
"0  c #362923",
"q  c #3C2A23",
"w  c #3D2F28",
"e  c #3F3029",
"r  c #41271C",
"t  c #43291E",
"y  c #482C1F",
"u  c #422D23",
"i  c #4A2E22",
"p  c #412F28",
"a  c #502F20",
"s  c #453026",
"d  c #4B3125",
"f  c #4C3125",
"g  c #4E3327",
"h  c #473128",
"j  c #473329",
"k  c #44332B",
"l  c #47352C",
"z  c #483329",
"x  c #4B3328",
"c  c #4B3428",
"v  c #4B342B",
"b  c #4E362C",
"n  c #4B382F",
"m  c #4E392F",
"M  c #533526",
"N  c #563626",
"B  c #50372A",
"V  c #50372B",
"C  c #50382B",
"Z  c #52382C",
"A  c #54392C",
"S  c #563C2F",
"D  c #573C2F",
"F  c #583B2D",
"G  c #5A3D2E",
"H  c #483730",
"J  c #473830",
"K  c #4F3A31",
"L  c #4C3A32",
"P  c #523D32",
"I  c #553C30",
"U  c #543E33",
"Y  c #523E34",
"T  c #5A3F31",
"R  c #513F38",
"E  c #564035",
"W  c #554036",
"Q  c #5D4133",
"!  c #5A4136",
"~  c #5E4334",
"^  c #554239",
"/  c #5C4539",
"(  c #5E4539",
")  c #5F473B",
"_  c #5D4A3F",
"`  c #604334",
"'  c #624435",
"]  c #654635",
"[  c #694937",
"{  c #624738",
"}  c #644839",
"|  c #64493B",
" . c #62493C",
".. c #6B4C3B",
"X. c #6D4F3D",
"o. c #704F3D",
"O. c #6E513F",
"+. c #72513F",
"@. c #5F4B40",
"#. c #664F42",
"$. c #6A4F40",
"%. c #6D5244",
"&. c #6A5549",
"*. c #6F594C",
"=. c #735441",
"-. c #735443",
";. c #755441",
":. c #745542",
">. c #795642",
",. c #7B5945",
"<. c #735A4B",
"1. c #7E5E4A",
"2. c #735D50",
"3. c #7B6153",
"4. c #815D48",
"5. c #856653",
"6. c #876957",
"7. c #8B6A56",
/* pixels */
". . . X @ O O % . . + . . o O = ; * = , @ + * ; ; ; ; ; ; 5 ; @ @ ; ; ; ; ; * # @ = # 5 > 3 7 2 2 5 5 7 6 @ O O O + . O = * = + ",
"X X O , , ; , < % O o o + @ ; 7 y < 7 y = + > 7 6 9 7 6 u C 6 * - 9 7 i u r ; O % , * , 1 r M t t y 7 N f @ % * - ; ; ; 6 6 < o ",
"X O ; 7 9 7 7 t 3 = o o @ > 9 v A u v F ; @ 5 u h m n v m ) h * - 6 u Q T B 9 > < u * 4 r B ..A B A u +.] * = ; 5 5 5 9 b z 7 @ ",
"X = < u u u u u 6 < O O - 5 u Z A u v ` 6 @ u U P P K n Y ) K 2 = i v } { A u > 6 v ; y d T -.~ Z A z ;.X.; 3 6 9 5 9 q b U h * ",
"% = < u u u u u 5 5 @ O - 5 u Z S 9 v ` 6 * z E K P K m P  .E 5 ; h Z ' ~ T u > 9 v > f f T ;.~ A ` Z -.O.: 7 6 9 2 5 9 b ! b : ",
"% ; 3 u u u u 9 3 7 * @ ; 5 u v Z 9 b } 9 - z E P U m P !  .U 2 ; v Z ) ~ ~ u > 9 v 2 f A A +.) A T A -.-.: 9 9 9 2 6 9 b ~ b : ",
"$ ; 5 u u u u u 6 7 * @ > 5 u v Z 6 v } 9 - z E P U K P ! ) K 2 < v Z ' ~ T u : 9 Z 5 i A Z O.' S T v ,.-.: 9 9 9 5 9 9 Z { Z : ",
"$ ; 5 u u u 9 u 6 t * O > 5 u Z A 6 v ' q - s P K P U U P ) m 2 ; h Z ' U T u > 9 A 5 i B Z } Q ` Q Z ,.%.: 9 5 9 5 9 9 Z { Z ; ",
"$ ; 5 u u u 9 u 6 u - O ; 5 u Z A 9 v T u : u m v v m U Y ! P 8 < i v ' U Q u : 9 Z 2 u B S } ~ ..' T +.) : 7 9 9 5 6 u Z } v - ",
"$ ; 3 u u u 9 7 5 u * @ ; 5 u B v 5 z ~ 9 : h P v l v P E ) U 0 < d Z ' T Q u : 9 Z 2 y A T ] ' ;.` Q ,.Q > 9 9 9 5 6 9 v T b : ",
"% , 3 u u u u 6 < t * X ; 5 u v v 5 s ` u - z U v l v P E ) P 5 ; v Z ~ T Q u : 9 U 2 y f S o.] o.~ Q ,.~ : 9 9 9 5 6 u v U Z : ",
"% = < 7 9 h u u 5 6 @ X ; 5 u v v 5 u Q u - h P K v K P E ) Y 8 ; v Z ~ Q ' h - u ! 5 y B T +.' o.Q T ,.' 2 7 9 9 8 6 u v U Z 2 ",
"% = 5 u 9 u u u 3 6 @ O ; 5 9 v v 5 u Q q - 9 P K v K E ! ) P 5 ; h U } } } z - u Q 5 y v A ] Q ;.` Z 1.' : 7 u 9 5 5 u v U Z : ",
"$ = < u u u u u 5 6 @ X ; 5 u v v 5 u Q 9 * 6 v v v K E ) ) P 2 < s U %.%.} z : u Q 5 r v Z A Q X.Q U 4.~ ; 6 9 9 5 6 9 z ! Z - ",
"X * < u 9 u u 7 ; < @ o @ ; u v z 2 u S 3 @ > q h h v U E E v : ; r v X.O.} h : 9 C ; 6 t B S T X.Q T 4.T * ; < 9 5 5 9 z ! s * ",
". . X = * * * * . X .   . . * : - O * ; @ + o @ * * : 2 : 2 * + O * * 5 5 5 ; @ * ; @ * % ; > 2 8 5 5 s 2 o . o @ O O @ : : * o ",
"o o o o o + + o . @ @ . . . . + o . O ; * * @ @ @ + + = = < ; ; < ; = 3 - * = @ * 6 < ; = ; , @ * - - q 5 @ @ . . . . o @ ; * + ",
": : : ; @ + + O O > > * * @ * @ o o - u 9 q 0 0 8 * + ; 1 i f i N i r G 7 = = . ; G G N y y a = ; 5 8 $.) 9 2 : : +   @ > h h 2 ",
"w 0 8 0 * + @ * - q 9 2 2 2 5 # O @ 5 Y K Y L K h 5 @ < r A S Q ~ S v o.B - & @ 6 [ +.[ A A N ; * 5 e *.&.K e 0 0 * . @ 0 ^ K w ",
"e 0 0 w : + * 2 2 h q 5 2 2 9 : O - q ^ K / Y L L q @ 6 M S A ' } Q S o.Q ; , ; u [ ;.[ A T F 5 - q K *.&.K e 8 8 : + * l ^ K w ",
"e q q w : + - 8 5 h h 5 8 8 9 2 * : h ^ K ^ Y l H w # t F S A Q X.` T Q Z ; 4 > u [ >.X.T Q ` 5 2 h K &.&.K e 0 0 2 @ : l ^ K e ",
"q 0 0 e 2 @ - 8 8 w q 5 2 5 0 2 - : e E K ^ K K J w * u ] Q A T X.' A T h ; , ; u ..>.o.T T ` 5 2 l E &.&.K h 0 0 2 @ : l ^ K w ",
"q 0 q h 2 @ ; 8 2 h q 2 2 5 0 2 - : w K K ^ ^ K l e * t S Q T T X.} Z Q h ; , - 9 [ >.X.A A T 5 2 q K *.&.K h 0 0 8 @ : l ^ K w ",
"q 0 w h 2 @ ; 8 5 h q 2 8 5 8 : - 2 w Y K ^ ^ J h h * 7 S T T ~ X.' A T z > , ; 6 ` o...A T G 9 2 h K 3.&.K h 0 0 8 @ - l ^ K w ",
"q w w h 2 + ; 0 2 q 0 2 8 8 5 : - 2 e Y K K K h K h # 6 Q Q U Q o.Q S Q s ; , > 9 G ` [ S T ` 9 2 h K 3.*.K h 0 q 8 @ - l ^ K w ",
"w q 0 h 8 + - 8 2 h q 2 8 8 0 2 : 2 e K J K K l Y h # 6 G Q Z Q [ T Z T s ; , ; 7 Q Q ] A T ] 6 2 h K *.*.K h 8 q 0 @ : e K K w ",
"w 0 0 h 2 + - 8 2 q q 5 8 5 0 2 ; 8 k Y L K K h K h * 6 G [ U Q ' S Z Q s ; , ; 7 ' ' ` S T ] 5 2 q h *.*.K h 8 0 8 @ - w E E w ",
"w 0 0 e 2 + - 8 2 q 0 2 8 5 0 2 : 2 k Y J ^ K K K h # 6 S ..S T T S A ` h ; , ; 6 ] ' ] T S ' 5 2 q l 3.2.K e 8 8 8 # - e Y K w ",
"e 0 0 w 2 + - 8 5 q 0 5 8 2 0 2 : 5 l Y l E l K K l # 6 B } T Q Q Q A T z ; < ; 6 ` ` ` A S X.0 2 q J 2.2.l e 8 0 0 @ : l Y K 0 ",
"h 8 0 h 2 + - 5 5 p 9 2 0 2 0 : - 8 l ^ K Y l K K h @ < M ` S ' } ~ U Q B ; ; = 6 ` Q Q B S [ 5 2 q h *.<.l w 8 0 8 @ - h K l 0 ",
"w 2 8 q : + @ ; 2 q 8 : 2 : 5 - * : h ^ K K h h h 9 @ = t S S ~ Q Q Z S u = & * 3 T Q ] Z S S - : 5 0 #.*.l w 2 8 : . @ 5 e J 0 ",
"* + @ @ . . . . o # @ + @ o O + . o * 2 : : * @ # @ o o % ; : : - > - ; * o . . @ 5 5 5 ; ; ; @ o o + 8 0 : * @ @ .   . o @ * @ ",
". . . O O @ O O o o + . . . O = ; @ ; ; * + @ # * * @ @ - 5 - @ @ = @ - ; ; @ + + ; * @ @ * ; ; 5 - @ 6 6 o . o O O O X * = & . ",
"o . O ; > 5 ; < = * + o + O ; 6 u 3 u u ; o - 5 5 6 5 5 h z 6 @ * ; ; 7 z h ; * * t : * ; 5 i h S u 5 S S o X O = ; ; ; 6 y 4 X ",
"o X - u 9 9 9 9 5 = + . @ ; 5 h U h m U 5 O * 5 h v h v K K u - * < 6 Z ! ! 9 2 5 v 5 ; 3 u U ! %.P q X.} O X = , 5 7 7 u d u % ",
"O % 5 u 9 9 q q 5 > @ o - 5 u K U u m U 9 @ ; 9 K v h v Y Y n 5 @ 5 u ) ! ! 9 > 5 ! 0 5 u v ~ ! 1.! u -.-.@ % < 6 9 9 9 u Z B ; ",
"O = 5 9 9 9 9 9 5 5 * @ : 2 q n ! h m U 9 @ > h Y l h v Y ^ Y q @ 5 z ) E ! 9 > 5 E e 9 h v ) ) 5.) h -.<.@ = 3 9 u 9 9 h A B < ",
"O = 5 u 6 8 9 9 5 5 * @ : 5 q v U h U U 9 @ 5 h l h h K Y E K 8 @ 6 h U P ! q 2 5 U e 6 u v ! ) 7.) h $.-.@ & 3 9 9 9 9 z A A 5 ",
"@ = 5 9 6 5 9 9 5 5 * @ ; 5 q v P q m U q @ 5 h l h v K Y Y K 2 @ 5 u U P ! 9 > 5 P h 6 h v ! ) 7.) h  .-.@ = 3 7 9 9 9 z A v < ",
"O = 5 9 9 8 9 9 5 5 * @ ; 5 q v ^ h m P u * 5 h l l K K P E v 8 @ 6 h U P U 9 5 5 P e q z v ! ) 5.) h  .-.@ & 5 7 9 9 7 s A d ; ",
"@ = 5 9 9 8 9 9 5 5 - O - 5 p m ) h m P q @ 2 w l K E K E ) K 8 @ 6 h U P ! 9 5 5 m q u v v ~ ) 5. .v ) -.@ = 6 6 6 9 6 s B v ; ",
"@ ; 5 u 9 5 9 9 5 5 : @ ; 5 q m ) h v P u * 2 q l K E Y ) ^ v 2 @ 5 u ! ! ~ 9 > 5 m q q K K ) ) 5. .h ! X.* = 6 6 6 u 6 z Z s ; ",
"@ ; 5 u 9 5 9 u 5 5 * @ ; 2 q m ) h m U u * ; 0 l n P K E Y l 2 @ 9 z E  .! 9 : 2 m q 9 m K ) ) 5. .h ! $.* = 3 6 9 u 6 z A u ; ",
"@ ; 5 9 9 8 9 9 5 > # O : 5 q m  .h K P s @ ; 0 v v n K E E K 5 @ 6 v ! ) ! 9 : 2 Z q 9 b U ) ) 5. .v ) %.* & < 9 9 u 7 h A u ; ",
"O ; 5 5 6 8 9 9 5 ; # O 2 5 q m ) h v U h @ > q l v K n E ) l 2 @ 6 h ! ) E 8 : 2 m q 9 Z U  .) %.{ v ) $.* ; 3 7 9 7 6 v Z u ; ",
"O = 5 9 9 0 9 9 5 > * o > 5 q v ) l m P h @ - 0 l v K l Y ) l : @ 6 h ) ) U 8 : 2 m q 6 Z U ) ! $. .h E } * = 6 9 9 9 9 v v u = ",
"O % ; 6 9 0 9 9 5 ; @ o @ > 9 v ) h P U 9 + @ : h l K l E ^ h * @ > u ) ) P 8 2 2 z 5 3 u b ) E } ! h U Q @ % ; 6 6 9 9 s v 7 O ",
". . . @ @ @ @ * O . +   . o @ : 2 - : : @ o   o * : 2 : 2 2 @ . . o @ 2 2 2 * @ @ - # @ @ * 5 2 5 2 * - > o . . O @ * * - - @ . ",
"o . o . o + . . . . . + o o O o O @ ; ; * ; @ O * O o @ ; 2 @ @ * @ @ : @ + . . . ; ; ; * = 4 @ * ; @ - 5 - o o O O . . * ; * . ",
"; ; - * @ + + * @ @ @ # @ * = @ = = 6 t 6 7 < ; 3 ; O - 6 z 9 0 9 8 9 z 2 @ X . * i i f i i N * - 6 ; 9 A 9 > ; ; * . o ; u 6 - ",
"9 8 5 5 - + @ ; > : : > : 2 5 * = ; h B u h u h v 3 @ ; u Y l K K l K ^ q * % @ ; B A Q ` Q ` ; - t 9 m $.P q 5 5 ; o O 6 U h 8 ",
"0 9 8 8 : + * 5 8 2 2 : 2 8 9 - < 3 v T z v z h v 7 @ 2 n ^ K Y ^ K ^ _ K - = ; > B A T Q Q [ 5 ; v n U -.! u 9 8 2 @ * h ) l 8 ",
"0 0 8 8 2 + - 5 5 8 5 : : 2 0 : 3 7 v A z z z h z u # 2 K ^ K K ^ K Y ) K - ; : > B S T Q ' o.5 5 b K ) <.! u 0 8 5 @ - v ) l 0 ",
"q 0 9 9 2 + - 0 8 8 8 > : 2 q 2 < 6 Z Q z h z z v h * 2 K ^ K l K K K ^ J ; = - > B A ` ' ` +.9 5 Z K  .<.P q 0 8 5 @ - b ^ v 8 ",
"q 0 0 q 5 + - 5 8 2 5 : : > q : < 6 Z Q v v z z Z u @ 2 K ^ K J K K K ^ K ; ; - > A S ] ` ' ;.5 5 Z n ) %.P q 9 8 5 @ - v ) K 8 ",
"q 0 9 q 8 + - 9 8 2 2 : * 2 0 : < 6 Z Q z v z h Z h * 2 K ^ K J K K K ^ K ; < ; 5 A T [ } [ ;.5 ; z n ) <.P q 9 5 8 # - h ) K 0 ",
"q 9 0 0 5 + - 9 5 8 2 : : 2 q 2 < 6 S ' z v z h ~ B - 2 K ^ K K ^ R K ^ K ; < ; 5 Z Q [ Q [ o.5 2 z l  .5.Y q q 8 8 @ - h E v 9 ",
"q 0 8 9 5 + - q 5 2 5 2 : : q : < 6 Z ' z Z b z T v * 2 K _ K K K ^ K ^ E ; < ; 5 Z Q [ ' } +.5 5 m v  .6.E q 9 8 8 # - v ^ K 0 ",
"q 0 8 q 5 + - 0 8 5 8 2 : 2 q 2 3 6 v ' v U U b S v * 2 Y #.Y K J R K / K - ; - 5 A Q [ ' [ X.5 2 z m  .5.E q 9 8 5 @ - v E n 0 ",
"0 8 8 q 2 + - 0 8 8 5 8 : : w 2 3 6 v ~ z U U U A B - 5 K #.K K K R K @.K - ; : 5 C T X.Q } [ 2 ; v P #.<.Y q 9 8 5 @ ; l U n 0 ",
"9 5 8 q 2 + * 9 8 8 2 5 : 2 w 2 3 6 B Q z Z U ~ T A - 8 m _ E Y ^ ^ K @.K - ; ; 3 A ` +.~ ' ' 2 - z K #.<.K u q 8 5 @ ; h ) v 0 ",
"9 2 8 q 2 + * 9 8 2 2 2 : 2 0 : < 7 A ' v V Q T T v * 5 n #.^ Y ^ ^ K @.K - = ; 6 A Q >.[ } T ; - u n %.3.K u 0 8 5 @ - 9 K v 9 ",
"9 2 5 9 - + @ 5 2 2 : 2 : : 5 * ; < s ~ z v S Z A u @ - u ) Y K R J J ^ 0 @ = * 5 B Q +.Z ~ ` - @ 6 u %.3.K u 9 5 : o @ 5 h h 9 ",
"* O @ @ . + . O o o + @ o o O o O O - 5 ; ; 5 5 ; * o O * 2 2 : : : : 2 # + .   O ; 5 6 ; 2 5 @ o * * 9 h 2 - @ @ . . . O @ * @ "
};
