/* XPM */
static char *f64dd8e9a6ba48e8f1bb475ff1afa1fcCWdFB7PYn28AM1QJ[] = {
/* columns rows colors chars-per-pixel */
"64 64 101 2 ",
"   c #211F1D",
".  c #25211E",
"X  c #2B251F",
"o  c #2F281F",
"O  c #32291F",
"+  c #272422",
"@  c #2B2622",
"#  c #2D2925",
"$  c #2E2C29",
"%  c #332C25",
"&  c #392F25",
"*  c #332E29",
"=  c #382F28",
"-  c #373027",
";  c #3B3226",
":  c #36312A",
">  c #3C342A",
",  c #3F382E",
"<  c #363431",
"1  c #3A3631",
"2  c #3F3830",
"3  c #413527",
"4  c #453927",
"5  c #4A3B27",
"6  c #41372A",
"7  c #443A2D",
"8  c #4A3E2D",
"9  c #453C31",
"0  c #493F31",
"q  c #4D412E",
"w  c #52442D",
"e  c #4C4233",
"r  c #4E4436",
"t  c #4C4438",
"y  c #4E4539",
"u  c #514330",
"i  c #514533",
"p  c #534732",
"a  c #564732",
"s  c #504536",
"d  c #574930",
"f  c #524836",
"g  c #564834",
"h  c #544836",
"j  c #584A31",
"k  c #584A36",
"l  c #5A4C35",
"z  c #594C37",
"x  c #5D4E37",
"c  c #514739",
"v  c #51483A",
"b  c #544A38",
"n  c #574C3A",
"m  c #53493C",
"M  c #564C3D",
"N  c #594D3A",
"B  c #5A4E3B",
"V  c #5C4E3A",
"C  c #5C4F3C",
"Z  c #5F5037",
"A  c #5F523B",
"S  c #5D503E",
"D  c #5F543F",
"F  c #604F33",
"G  c #625335",
"H  c #625337",
"J  c #61523A",
"K  c #64543B",
"L  c #62533C",
"P  c #63543C",
"I  c #60553F",
"U  c #65543D",
"Y  c #68573C",
"T  c #67583E",
"R  c #68583A",
"E  c #6A5A3E",
"W  c #705C3C",
"Q  c #564C40",
"!  c #594F41",
"~  c #5C5241",
"^  c #625641",
"/  c #665943",
"(  c #6B5C43",
")  c #675C48",
"_  c #695E49",
"`  c #705F42",
"'  c #6E6047",
"]  c #6D614B",
"[  c #726244",
"{  c #746344",
"}  c #786545",
"|  c #7B6847",
" . c #73644A",
".. c #76674B",
"X. c #77684C",
"o. c #7C6A4B",
"O. c #79694C",
"+. c #7A6A51",
"@. c #816D4B",
"#. c #85714F",
"$. c #827152",
/* pixels */
"$ : = $ $ : > > > > : < : : p 7 @ * > 7 > * > $ $ : * * $ : < $ # > > > 7 > * * * = = > 9 > > * * : > * * < : > * * * 7 j h 7 % ",
"@ % % = % > 7 > > % # : : > H q @ # ; w 7 ; 6 % # : : > % 9 9 $ @ > 6 5 5 3 % % # % % 8 j 5 3 % # % 6 = > > > 6 % # % w R H 8 & ",
"@ > 7 6 7 e N e 7 ; > 7 7 e ..A * > 8 J p e p > @ 1 9 e 9 m m > # 4 a x x q 7 6 # % 7 k U x a ; # = e 9 9 e e y ; % > A [ ( h > ",
"@ 6 8 7 7 r S f 7 8 9 y 0 r O.I % 7 p A s h V 7 % 7 e e 9 c Q 9 % w J J V u e 8 % 6 8 h L V k 7 = 7 c 9 e y y M 7 ; 6 z ( ( h 7 ",
"# 7 e 7 7 e n b e e 0 m r s ..D : 0 s A h h V e % 6 0 e 9 y Q 9 % h U K x p q 7 % 7 e q U U k e : 9 c 9 e y y N 7 7 > N { ( z 8 ",
"# 7 e 7 7 s N n e q 9 e e s ..^ : 7 s A s h L e = 9 e e 9 c m 9 % w J Y H a 0 8 - 7 e a H H k 8 : e r 9 y y y ~ 7 6 > N } } k e ",
"# 0 r 9 7 s N n e e 9 c e r O.^ > 9 s U h h A e = 9 e e 9 c Q 9 % w J K J k 8 8 > p p p J U k 8 : e c 9 y y c ~ 7 3 > h } } s 8 ",
"# 8 e 7 9 c S M e s 9 v e r o.^ > 0 s A h s L e = 7 e e 9 y M 9 % w J E K h p 8 ; 8 u p L Y k 8 : 7 c 9 9 y v ~ 7 6 7 h [ { e 8 ",
"# 7 e 7 7 s S v e s 9 e 9 r $./ : 7 e N s z ^ e > 9 e e 9 y Q 9 ; j U K E x h 0 % 8 e p U J a 7 = 7 c 9 e m m ~ 7 7 > p ( { e 8 ",
"# 6 e 7 7 s S v 7 8 0 m 0 s $._ : 9 s V p N L e > 0 e e 9 y M 9 > j U E E x p 8 ; 8 8 p k V k 0 * 7 c 9 e y c ~ 7 7 > e ( ( e 8 ",
"# 7 e 7 7 N ^ b 7 e e c 9 f o._ > 0 s J s k U e > 0 e e 9 m Q 9 ; j x H E k 8 7 > q e q k V h 7 = 7 e 9 y m v ~ 0 8 > e U E 8 8 ",
"# 7 s 9 7 b N b 7 e 9 e e f ../ > 9 e A h N ( s : e e e 9 c ! 9 > x J K J h q 7 - 7 e u k z a 6 * 7 v 9 y m M ~ e 8 > e J E 0 7 ",
"% 7 s 9 7 b N N 9 e 9 c e f  ./ - 7 s A h V ^ f > 7 9 e 9 m ~ 9 > j K A J z e 8 % 3 e e J U a 6 % 7 y 9 e y M ~ e e > p U U 0 7 ",
"# 7 s 9 e S S n 7 8 7 e e b X.( % > e A h V I s : 7 9 e 9 y M 9 ; w J A J a 8 8 % 3 e s V U p 7 # > y 9 e y M ~ 7 8 > p J V 7 6 ",
"# ; e e e N ^ n > > > 0 e f X.I # % e V h N I 8 = > 7 e 9 y m 2 % q H z x k q 6 % & 7 h N V e > @ = 9 9 e y N ~ 6 3 > e A J 7 ; ",
"+ @ % % - 7 7 > % @ @ # % > e 7 + + % > ; > 7 % @ @ @ % % % % @ @ % 3 7 7 > % @ @ X X % ; ; # @ + + # = = : > , % X @ % ; > % X ",
"% % % @ # 7 7 8 8 ; # @ @ > p 8 - @ % % % ; 7 3 ; % % # # * = = & > 7 % & ; % % * # # @ # * # $ $ # * # # = 7 p 8 % # @ % > % % ",
"8 6 4 # # q j I J 8 = @ @ 7 K Z 7 = ; ; & 4 w w 5 5 ; % # > 8 6 5 j j ; & ; & ; 7 ; % # * < % > > > ; % # & q I A 6 # # % ; ; 3 ",
"p e a % % w U ( U h > # @ 8 T T s > 7 7 ; w H F j j 8 ; % 7 N 0 a U U 7 3 5 7 e V 8 6 % = 9 7 0 e 0 8 % % 7 z ( / s % % % 5 8 e ",
"s p J > ; z / ( T h 7 * @ q ( U s 9 0 9 4 j Y K j x a 7 ; 8 N 8 h ( ` e 8 p 8 e z e 8 > > e e e y 0 s > ; e ^ _ ( s > = & 7 8 e ",
"p s H > ; J I ( ( h 6 * % s ( U e 9 9 9 8 z J H k z p 7 ; 7 0 8 h ( ( e p k e e k e e > 7 s e e r e s > > s / / ^ s 9 > ; 8 q q ",
"h s J > ; J I ( ( p > * % s ( I e > 7 7 q H H x j k h 7 ; 8 e 8 z ( E e p h 8 8 s s e > 7 s c e e 0 e > ; s ( / I s 7 > > 8 e u ",
"s h J > ; x U ( U u > * % e / I e 7 7 7 w J V H j x k 7 3 8 e 8 k E ( e e a 7 0 e u e 7 > e s e e e e > > b / ] ^ s 7 > 7 8 e e ",
"h p H > ; x I ( U s > % # p / L e 2 7 7 w H x x j x k 8 ; 7 7 8 k J Y r q p 7 0 e 0 e 7 7 c e 0 e 0 e 7 9 N _  .( s 7 > 7 q 8 q ",
"h p J > ; J N S I h 7 * @ p _ / 0 > 7 9 q H J H j x h 7 > 7 e 8 k U ( r 8 p 7 0 s e 0 > 6 c e e e 0 e > 9 S ] ] / s 9 > 7 8 8 e ",
"h e x > > A V L U h > * @ e _ ( e 2 9 7 4 F K H k k a 7 > 8 s 8 x Y ( e 8 u e s b e e > > p e e e e 0 > 7 L ' _ S s 9 > 6 8 e e ",
"h e V > ; x I ( U h > * @ u ( U e > 7 7 4 F E R x p p 7 6 7 e 7 z J E e q q e p s e e > > b r 0 e e s > 7 I  .( ^ h 9 > 7 e 8 q ",
"h e x > > J I ( ( p > * # e / I e 7 9 7 8 H K K x h a 7 ; 7 e 8 h I ( e q p e e k h e > 6 N s e e 0 s , 7 / _ / ^ N 7 : 8 h e 8 ",
"h e x 7 ; J L ( ( p > * # u ( I e 6 9 7 q H H H j k h 7 ; 7 c 8 h I U 8 q p 7 u V h e > > e e s e 0 s 7 7 U ( L L N 7 % 7 h e e ",
"h e x 7 ; z A _ U u > # @ q U I 0 7 9 > 5 H J K x h h 7 ; 8 s 8 h J U 0 8 8 7 p h z e > ; e e e s s b 7 7 / _ ^ ^ N 7 # 6 u e 8 ",
"p 8 h > % w A ( U e % @ @ 8 I S e 7 7 > 5 F K Y j a w 6 % > 8 8 k J J 7 3 5 8 h z a u > % 7 e s s s e > 6 Z / _ ( N 6 # & 4 q 8 ",
"- % ; # . & ; 6 > % . + . # > > % # X @ % ; 7 7 ; ; % % @ . X % ; 6 ; # % O % % > ; % # + @ # - % % % # # ; 7 8 7 > @ + @ @ % % ",
"@ # = # % > > % % * $ $ $ > 7 > @ $ $ = > 6 > % % % ; 7 % % * # # > : > > = % % # % % : > = = % @ $ $ $ : > > > % & # $ # % % # ",
"@ % 7 ; ; w 8 > % % * > = 8 z 7 @ * = 7 e s e > % % 6 z q > > % % 7 7 h b 8 > % % & 3 8 e 0 7 % @ * = : 7 e e 7 % 3 % * % & & % ",
"@ ; h r e L L 7 % ; > 0 7 b ^ p # * > e n ^ N 0 - > 8 A k 0 e > % e N ^ ~ N e 6 % 3 e s z V s > # : > 9 M ~ S e ; 5 3 > ; 6 7 3 ",
"% 6 L s r / S 0 > 7 > 9 9 N S f * > 7 v N / ^ e > 7 e I k e s 7 > L _ / / N e 9 > 8 b N C S b 0 * 7 9 9 M ~ ~ r > w 8 7 7 7 8 8 ",
"> 7 S r r ^ S e > 7 > 9 , b S s % 9 e M N ^ ~ c > 8 e A h 0 r 9 7 N N / _ N e 9 > p b b S C z e : 7 e 9 M ~ M v 7 j 7 > 7 0 e q ",
": 7 S v s L N 0 > 0 7 e 7 N ^ M % 7 9 s n ^ / b > 8 p I h 0 s 7 7 S ^ ] ^ n r 0 6 k b b N s h e > 9 e e N ~ ~ v 7 j 8 > 6 7 u 8 ",
"> 7 V b s S b e > 8 7 e 9 N ^ N * > 9 c M ^ ^ S > 8 h E A e e 9 > S _ ] / N r r > k z V b s e e > e y e N ~ ! y 7 x e > 6 8 q 8 ",
"> 7 A N s S s 7 % 7 9 9 9 b S b * 7 9 s n ^ ^ S > 7 p T A e e 7 7 S ] / ( N s r > h h s b N s e > r v r M ~ N v 7 z q > 7 7 e 8 ",
"> 9 N N s L v 7 % 7 9 9 9 h S b % 7 9 r v ^ / S > 7 p E V e s 0 7 ^ _ / _ S b e > k b s b M b e , r y e M ~ ~ y 7 x p 7 7 7 8 8 ",
"> 7 N h r C s 9 : 7 9 e 9 h ^ b % > 9 e v / / S > 8 p ( A e s 0 9 C ^ ] X.S b e 7 z N N S N b r > e e e M ~ ^ y 7 x a 7 7 7 u 7 ",
"> 7 N b r S s 9 : 8 9 e 9 s ^ v # > 9 e c / ^ ~ > 6 e ( J s h e 9 I I X.+.S b e 7 k V S L N b r > e y e M ! ~ e 7 x w 7 7 7 p 8 ",
"> 7 h b s S r 7 % 7 9 e 9 s ^ s % > 9 e r ^ ^ S > ; 8 E U h s e 7 I _ X.X.S b e 7 a N ^ N n s s , e y e v M ~ e 7 w p 7 0 7 w 8 ",
"> 7 N S b N e 7 = 7 9 0 0 s N e % > 9 r s / ~ N > > 7 J J s e e 7 ^ _ +.X.S b r > j V L S N z s > e v r M N ~ e 7 j a 7 9 7 a 8 ",
"> 7 N L N N e 7 % 6 7 e 9 s b e % > 7 e c ^ ^ N > ; 8 U A p z q , U  .X._ S N e > a N A S N N s > e y r v N ~ v > w j 8 9 0 a 7 ",
"- ; h L b N e : # ; 7 9 9 s h 6 # > 6 0 r / ^ N % % 7 Y J p p 7 > A ' _ _ ^ b e > w N U L S h 8 > 8 e r M ~ / e ; 5 w 8 6 7 w ; ",
"@ + % ; > > % + + @ @ @ # - % @ + + @ # % 9 7 > @ + @ 7 7 ; % % # ; 7 9 e 7 > - % ; > > 7 > ; % @ % % % : > 7 % @ O % % @ % & X ",
"> * ; % % > # * * # # @ @ * * * * * $ @ @ 6 7 7 = $ $ * % % = > 7 8 8 ; ; 7 7 7 7 7 6 % % > = > > > % # # > > > > * = @ @ % % # ",
"p > 7 > % 6 % : & ; % $ @ % > > > > % # @ 7 p z 7 : % : % > 6 w F W F 3 ; 8 q p h z h > & 6 6 8 j w 4 % # 6 5 p e 7 7 % # > ; % ",
"S 9 p 7 & 5 6 e 8 8 > = @ > 0 r e e 0 % # e S / v > 6 > % 6 q x E o.{ 7 ; q p h A ^ I 8 ; w j x Y J w ; @ 7 p N N b b > > 8 q 7 ",
"S e b 7 ; w 8 e e u 0 > # 7 e e e s b > % N / _ M 9 e e ; 5 V J K o.{ q 3 p V N S I I f > w x I E K x > @ 7 b S n N S 7 > 8 p 0 ",
"S e b 0 6 a e e s u 0 > # 7 s e e v c , % N _ ] M e e y 4 j J J E @.} p 7 h I N I I I s 7 x A E ( E z > % e n S N N S e 7 q s 0 ",
"S e V e 6 p p N s u e 7 # 7 s e 0 v r > - N / ] N 9 e e 4 F K K { #.o.p 7 z I S / / ( e 7 E E E ( E x 7 % p N N N S S e > p s 0 ",
"^ e z e 6 a 0 s s 8 0 9 % 7 s r 0 s v > - S / _ M 9 e e 4 j J K K { | h 7 z S N ^ / ' n 7 E ` E { E V 6 % s f r s S N e 7 h h 0 ",
"I 0 b r > p 7 0 s 0 0 7 # > e e 0 r r > - ~ / _ M 9 e e 4 d J E T ( { h 7 z S S ^ / ' b 7 R E E ( U V > % e h e e N S e 7 k h 9 ",
"S 0 h e > p 0 e 0 e e 7 # 6 e r 9 9 e > : ~ / / v 9 e e 4 j J K E ` } h 7 z S S / ( ..f 4 H E ( E E J 7 % p b e e n N e 6 p s 9 ",
"S 9 b e 6 p 0 e e 8 0 7 # 7 s e 9 0 c > : N ) _ b 9 9 e 4 j J K K { E q 7 x N N ^ _  .N 4 H E } E E K 6 % s b 9 7 b n e 7 h h 9 ",
"S 9 s e > 8 7 e e 8 p 7 # 6 c e 7 e e > > S / ] ~ e e 9 4 j J K K E E q 7 A N S / ( _ b 8 R { { ` E K 7 % e b 9 9 b N e 8 p h 0 ",
"^ 9 e 9 ; u 0 0 e 8 e 7 @ > b e 9 e s > > S ~ ] S e y e 4 j x K K E E q 3 z A N ^ _ ' b 7 R T E { ( K 7 % u h 9 9 s b 9 7 e s 7 ",
"S 0 r 9 ; q e e s 7 8 7 % 7 e 9 7 0 e > > ~ / _ M 9 y e 4 w A K E E K q 3 k N S / ( [ b 4 E } ( } E E 7 % p b 9 9 v f 0 > 8 e 7 ",
"I e s e ; 8 e e e 8 e 7 # 7 r 0 7 0 0 > - N ] ] M e r 9 4 w J K E E U 8 3 h S S / _  .n 3 E | ' | E K 7 % p f 9 9 n b 9 & 7 e 7 ",
"I 0 e 7 % 4 7 e 0 7 8 7 @ > e 0 7 e 7 % # b / ] M e 9 7 ; 5 j K E U K 7 % q N A / ' X.s ; H { E } { K 6 # 8 8 > 9 b r > # > 8 7 ",
"7 # o @ . X % % % % O %     @ X X % @ @ . % 7 e > % # % @ X % 7 7 7 7 % . O % > 7 8 p ; X ; 8 q w p 4 % . o % @ % 7 ; # . X % X "
};
