/* XPM */
static char *_8eb5ae53a68427c946827043bb8f915iuUdFunf9c2qVruC[] = {
/* columns rows colors chars-per-pixel */
"64 64 80 1 ",
"  c #170000",
". c #1B0202",
"X c #260707",
"o c #270808",
"O c #2C0B0B",
"+ c #320B0B",
"@ c #33100F",
"# c #3C1313",
"$ c #3E1816",
"% c #431414",
"& c #4B1212",
"* c #441817",
"= c #491917",
"- c #451918",
"; c #4D1B1A",
": c #521E1D",
"> c #5A1C1C",
", c #42221C",
"< c #4D221E",
"1 c #412A1F",
"2 c #53201F",
"3 c #4E2520",
"4 c #4D2B22",
"5 c #552221",
"6 c #592524",
"7 c #542924",
"8 c #5C2A26",
"9 c #5E2D28",
"0 c #573027",
"q c #5C3028",
"w c #642625",
"e c #6C2625",
"r c #632927",
"t c #682827",
"y c #652C29",
"u c #6D2C2B",
"i c #722827",
"p c #712D2C",
"a c #782D2D",
"s c #66312C",
"d c #6D322E",
"f c #72312F",
"g c #79322F",
"h c #753431",
"j c #753531",
"k c #783330",
"l c #7A3330",
"z c #783531",
"x c #7C3432",
"c c #7E3532",
"v c #7C3733",
"b c #7E3734",
"n c #7D3834",
"m c #7F3935",
"M c #803533",
"N c #833433",
"B c #843433",
"V c #813635",
"C c #843534",
"Z c #893636",
"A c #8B3737",
"S c #803835",
"D c #873A37",
"F c #8A3837",
"G c #873A38",
"H c #8B3838",
"J c #8B3A38",
"K c #8D3B39",
"L c #8E3A38",
"P c #8D3D3B",
"I c #913B3A",
"U c #943B3A",
"Y c #903C3B",
"T c #913D3B",
"R c #943C3B",
"E c #973C3B",
"W c #953C3C",
"Q c #983B3B",
"! c #983C3C",
"~ c #993C3C",
/* pixels */
"5ubSDzy88yzDmds87yVKPcy75rzDYVu55pK!!Zu55uZ!QZu55uFIIDu56uF!!Zu5",
"6uzDJcu88rlKSfy75ycFdyr55yzPPDu25uZ!!Zu55uZ!QZu5:uZURCu58uZ!!Zp5",
"5fVKWCu55uCUIJu55uVzdq876uDPKDu55uZR!Zu25uZ!!Zu5:uZ!RCu56uZ!!Zp5",
"6uCUWZu55uZ!!Zu5<uVd017<6yCIIDu26uCWRCu55uZQ!Jp55uZ!WCu55uCU!Zu5",
"6uCRWZu55uFW!Zu55uVjq44,7uCYUV935uMRIVy55uZ!WZp65uZR!Cu5:uZ!!Zu5",
"6uVYKCu86uD!RZu65uVJfsq3<uZIUldy5uCIKCu66uZQWJp85uZRWJu:5pZ!!Zp5",
"5ucPYV9ssdMW!Zu55uCJcjdy5uZWUfzs5ylKFcu55uZ!WZu55pBW!Fu55uZ!!Zu2",
"5ubPKly8syCRRCu55uMKbld65uZUIg9478fFPJu55uK!!Ju55uC!!Fu55uZ!!Zp5",
"6uJYKVu78yCYIDf56ucJKzu55uF!WVjsq9cDGJu65uZ!!Ku55uZQ!Zp55uZRWCp9",
"6uMPKVu65uMUWCt55rbKJCp55uJ!Ycf3<8VKbju55uK!!Zu65uZQ!Zu55pFUIMfr",
"5ycPKDu65uCYYVu56fDFFVu55uZ!WVy77yzKIZp55pZQQZu55uZQ!Zu55uCUYcu6",
"5uzPPDu55uZWWMu56pVYWZu55uZ!WCu66uCRWZu56pK!!Zu56pCQ!Ku55uZ!WVd6",
"8pccMMu55uCFCCu55ulMBCp55uCZMBu66fVCZZu55pZZZCu56uMZZZu55uCZCMu5",
"6u:Xo;t55u;oX:u55t;oo:u55y;oo:y56r=XX;u55u:oo:y55u:oo;w55u;XX=w6",
":#....#::%....%:5#....#55#....#55#....%2:#....#;;#....@::%.X..%5",
"O.+&&+.oO.+&&+.OO.+&&+.@+.+&&+.OO.+&&O.++.+&&+.OO.+&&O.OO.+&&+.O",
".+>ie>+ .+>ii>+  +>ii>+  +>ee:+  +:ee>O  +>ee>O  +:ww;O..+>pi>+.",
"O;iZZp:oO:aIIa:Oo;aKZp;oo;pCVu;oo=uCMp:Oo;pZDp;OO;pMct;OO:aIIa:O",
"-wMKIMw--wM!!Zw*%wCWWCw-*8fSDcw--8lKYMw-*wVYPcw;-yVDVz5$*wC!!Zw-",
"5fcYWZu::uZ!!Zu5:uZ!WFu56uzmSct;2uVKRZu55uZWRVt5<8jSJcy;;uZ!!Cu5",
"7yzR!Ju55uZ!!Zu55pJ!RCp57ylzSVy55pCWUZu55uZWKVy65ycDDGp55uZQWC83",
"78V!!Zu5:uVW!Ju55pZ!!Cu88rfDGJu25uCWUZu55pCKFVy8yuVFKcp55uZ!WC89",
"77c!Icu55uCRUZu52uZ!!Cu68dcKPSu55uZW!Zu55uCKKSsyyuVYYMu55uZ!!cy9",
"98cIYVu65uDYWJp55pZ!!Zu55dVIYVp56pZ!!Zu55uVKPzy86uCRUBu55uZ!!Vy8",
"ypcKYby78dDYRCp55uZ!!Ku55fZUUZp55uZ!!Jp56uCYKbr55uZRICu32uZ!WVu7",
"6uVKKjs87uCU!Zp55uZ!!Ku55uK!RZp55uZ!!Kp55uCYUMu55uZRKJf55uZ!Ucd8",
"6ucIDzs37yM!!Zu55uZ!!Zu55uZ!!Ju55uZ!!Ju66uZ!!Ju55uCYYCu56pZUWCd9",
"5uBIPDy78uC!!Zu:5pZ!!Zp55uC!RJu:5uZ!!Zu55uZ!UZu55uZRIcu56pBWYMy5",
"5yCWIlr8yuC!!Zu:5uZ!QZu5:tZWWJu55pZKKcu55uZR!Fu55uZRYJp55uZ!UCr5",
"5uZRIVy8ruZ!!Zu55uZ!!Zu:6uDWUZu55pDDDzu65uZW!Cu56uZWWJp55uZ!WCu5",
"6uZWWCu56uZ!!Zu55uZ!!Zu56dVKKCu55ubSjdy56uCRWCu55pCW!Zu:5pJ!!Zu6",
"5uFRIVy75uZ!!Zu55uZRWZu55yMFKCu55uzzdsy<5uCIRCu66pZW!Zu55uZ!!Zu6",
"5uZWKcm52uZ!!Zu58uCI!Zu65tMKYCu55yVSjdy55uCYRJu55uZ!RZp55uBW!Zp6",
"5uZWFzl55uZ!!Zu66uCWYCu65uMKKcu65uVFcdy86uCYYCu55pZ!!Zp:<uZWWZu5",
"5uZUYVu55uZ!!Zu55uCWRCu66uCYKcu65uVJmjy76uVPWCp52uZ!!Zu<6fCURJu:",
"5uZ!RZu55uZQ!Ku55uCWWCu55uMIYDu65ylGmcd67uSYWJp55pZ!!Zu8ruCIRZu5",
"2uCUIZu:5uZ!!Zu55uZWYCu25uVWICu52uVKFJd85uFY!Zu55pZ!QZur8pCIWJp5",
"2ucIRZu56uZ!!Zu85uCRYDu55uCWUCu5:uZWIlr65uVI!Zu55pK!UCu55uCWWJu5",
"5uVDWBu56uZ!!Zur6uCYWJu55uCWWZu25yJ!WVu55uCUWZu55uZ!!Cu55uZU!Ku<",
"5fSDFCu56uC!!Ku55uMIWZu55uCW!Zu55uK!!Zu56pZWWZu55pZ!Wcu55uZW!Ju5",
"6yfcSbu56pZ!!Zu:5pCWWZu55uZWWZu55uZ!!Zu55uCRIFu:5uZ!YCp55fJRWFu5",
"6ufDSbu66uZ!!Zu:5uFRIZp65uZ!WZu55uZR!Cu55uZWYFu::uZ!ICf65uJRUZp5",
"5pcDDcu66uZ!!Jp55uJWRJu52uF!WFp55uCUWZu25uZWYDu52uF!IVu56uVYICu5",
"5uVKPMu65uZ!!Zp66uZ!WJp5:uZWWFp55uBWIVu55uJ!!Fp55uJWYMy66uVYYCu6",
"5ulBCCu55pZZZCp65uMCCMu55pCCCCu66uVZMbu55pZZZZp55uMCMly66ubMVVu5",
"5t:oX;u5:u;XX:u55u=Xo;y55y=oo=r55t:oo;y55u:Xo:u:5y:oX=w55t*oo;u5",
"6#....#::%....#5:#....#;5%....#65#....#::%....#:2#....#:2#....#5",
"@.+&&+.+O.+&&+.OO.+&&+.OO.+&%+.+O.+&&+.OO.+&&+.OO.+&&+.O+.+&&O.O",
".O>ii>O  +>ip:+  +>ii>+  O=we:O .+>ii>+  O:ii>+  +>ii>+  +>ee:O.",
"o;pKIa:oo;iKKu;oO;iKZp;oO;uVFp;oO;iZZa;oo=pZZa:oo:pKZa:oO;iZZp;O",
"-wC!!Zy-*wMYIM6%*6MRUZy--8cIIMw--wCRUCw--rbKICw--wCRIBw*-wMKKCt=",
"5uZR!Zp55uzYYZu5:uZW!Ku<5uJW!Ze:5uZWWCu67uzJRZu25uZ!WZu5:uVFDVu5",
"5uC!!Zu55uVPICu56pK!QZu55rC!!Zu66uZ!!Cu56uDKIDu55pZRWCp55pCGmcy5",
"5uF!WZu55ucFWCu56pZQ!Zu55uC!QZp65uZ!WZu55pVFPbu25uZWUCu:5pJJSj9<",
"5uZW!Fu55fbFKVj86pZ!!Zu55pZ!!Zp5:uZ!!Zu55uMJGSu25uZWRJp55pCKSd98",
"6fFR!Zu66ybDJDu66uZQ!Zu55uK!!Zu55pZ!!Ku55ycPKcu52uZWWZu5:uCISdy5",
"5uZUWCu66yfDJGy25uZQ!Zu5:uZ!!Zp55pZ!!Zu:5ucKIcu55uZU!Cu65uZIFjy5",
"5uVRYVy86umDJGu25pZ!!Zp55uZW!Zu65uZ!!Zu55uMJICu65uC!QZu86uZRWDu6",
"8uCRYcy55uVIKDu55uZ!!Zu55pCI!Zu55uCU!Ku57ucKKVp65uC!!Zu:5uJUWVu5",
"yyCRJjy55yCRFcu55pZRRCu53uVYWZu55ycKRZu<6ucIICp85uFUQZu:5uZRIMu9",
"6ylKFzy86yDKKMy25uCWWCu55yzKRZu56yzYRC87yycKRCu57yVR!Zu55uZUUCu7",
"5rzJcd877yjVDjy55uCWRVd65uzKUZu56lMIYC879ucIWZu68dVY!Zu55uZRRZu5",
"5rjmjdy74ydmmdy95yCIYVu57ybKIZu55uVYICy66uCW!Zu58fVYRZu55uZ!!Zu6",
"6uzjjsy379jmmd875yCRICu88dDKYDu55uCWUJp55uF!!Zu55yDYWJu:5uZ!UZu5"
};
