/* XPM */
static char *c8104167d83d400def52e8278c08d336OLuQMG9kX8sCpViv[] = {
/* columns rows colors chars-per-pixel */
"64 64 78 1 ",
"  c #2A2E2D",
". c #2C302F",
"X c #2E3231",
"o c #313634",
"O c #343837",
"+ c #363B3A",
"@ c #393E3C",
"# c #3B403F",
"$ c #3D4342",
"% c #414745",
"& c #424847",
"* c #454C4A",
"= c #484F4D",
"- c #47504E",
"; c #49504F",
": c #4D5452",
"> c #4F5856",
", c #505755",
"< c #515857",
"1 c #545C5B",
"2 c #585F5D",
"3 c #57605E",
"4 c #59615F",
"5 c #5C6462",
"6 c #5F6866",
"7 c #606765",
"8 c #606967",
"9 c #636C6A",
"0 c #686F6D",
"q c #66716E",
"w c #68716F",
"e c #677270",
"r c #6B7573",
"t c #6D7976",
"y c #6F7B79",
"u c #707977",
"i c #727D7A",
"p c #75817E",
"a c #78827F",
"s c #768381",
"d c #768481",
"f c #798481",
"g c #788583",
"h c #7A8683",
"j c #798684",
"k c #7B8885",
"l c #7C8986",
"z c #7D8986",
"x c #7E8B88",
"c c #818C8A",
"v c #818E8B",
"b c #828E8B",
"n c #83908D",
"m c #84928F",
"M c #859390",
"N c #879391",
"B c #879592",
"V c #879693",
"C c #899693",
"Z c #889794",
"A c #8A9895",
"S c #8C9B98",
"D c #8D9D99",
"F c #8E9E9B",
"G c #909E9B",
"H c #90A09C",
"J c #92A19E",
"K c #91A29F",
"L c #94A4A0",
"P c #94A4A1",
"I c #98A6A3",
"U c #98A7A4",
"Y c #99A7A4",
"T c #9AA9A6",
"R c #9BAAA7",
"E c #9DACA9",
"W c #A0AFAC",
"Q c #A1B0AD",
/* pixels */
"&;5tt5# X@:55;O X+:88:o.O$3te1@X@$5yt2@ X@:55=oo&:9gs8@o&>9gp5@X",
"*<pZmy;O@&6ii6&@$:envq&#=1dKDs>$=1gPPj:+@*9gg8&&8rMTTM2%29nTKg:@",
"=1sSBt:+@&8iu6&@%:rMnq*$;3sDAi>$;2gPPk>@$=9kg9=*8rmTYM5&49vTKg>@",
"=2jKAt;+@&8ai6&@%>emme=$;2dDBy:$:2sKPk<@$=8jzw;=9uBTYm1&49mTKg>@",
"=1pDBt;+@&8pi6&@$:enve=#=2dDBr:$:2pKKg<#$=8gzq;=9uMYPv1&48xTPz>@",
"=1sDZi:@#&6iu5&@$;qvx9*#*1sDBy:$:3dKKg>@$=8gg9=*9uZTIv<&28jPPj>@",
"=2kPDp>@#&7it4%@$=enx9*#=2dKAy:$:4gDSg<#$=8pp9=*8rZWTv<&28xPPz<#",
";2jPDs>@@&6iu4%@$=qvz9&#=2jKAt=#;4gSZi:#$=8pi8&&8rCWTm1&28xYPz<#",
";2gKDi:@@&5ii5&@$=9zz9*$;2dKAt=#;4gGAi:@$=8ii7&&8rMWEm1%29vTPx<#",
"=1pDAt:@#&6ii8*#$*9xvq*$;2sKDy:$:5zPDp:@#*8pi8&&8rCEEC4&4qmETx<#",
"%*5eq4%O+@<41:$@@#<88<$@&=6ee5%@;<epu9&++#,54>$%58iggi>$<4rgpe*@",
"o@2te2@X+&qji5#.o@1ee2@.o#2ee<@@19vKDg:.X+<98:@@29zGDj;+*<iAMr%X",
"$=8pp9*#=1iABr=@$=9gg9*+@*8pi5&=wiSWWA5@@%4te2&;9uSETm2&18zPGg>@",
"#*6pp9*#*<yBBt;@$;9gg9*+#*6ut5&=9uMTTC4@+$2ew1&=9uAEIv1%16jGDg<@",
"$*6pp9=$=<yAAy:@$*8sp9*+@&8it5&*9rmITC2+@%2ew1%=9uCTPv<$<5sDGj<@",
"$=9gp9=$=2pSAi:@$=9gg9*+@&6iu5&*9rmTTm2+@%4ew1%=9umTIv1%<5gPPz<@",
"$=9gp8*$=3dDAp<$$:qgjq=@@&5ii5&=0uMTYM2++%4rw1%*9umYYM4%16jPPj>@",
"$=9gp9=$=1pDDp>$$;9ggq;@@&5iu5&=0umTTC4++$1ew1%&9uCTTZ4$<6jPKg>@",
"$=9gg9=$=<iAAi:#$=9gg9;@@&6it4&=0umTTC4+@%4re2%*9uCTTZ4$<6zPGg>@",
"$=8sp6&#&<iAAy:#$=9gp9=@@&6ir4&=0umTEC4+@%5iu5&*9uCTTC2$<6xPKg:@",
"$=6ur5&#*<yBBi:#$=6iu6*@@&5rw4&*9umPKm2+@&5re4&*9uvKGv2%<6zGDg>@",
"X@;55;+X+$3ty5$.o@:55:+ X@<e9<@+,4egpe& .@<q9>++<7uvxt&o%:8iy6$ ",
"O$5ii5$O$:enBr*o+&5iu5$+&1pDBt=+&<iDAi:+%<yBnt;$5emTTv>o$>rCMe&o",
"#&8gi6&#&>yBnt:@#*9gg9*$>5dDSi:$:2dPGd>$;4pABp<=9uSQEM1#*1iSSi:@",
"#*8pt5%@&<iBxe;@@&8gg8*$:2pSAy:$:2sDDp:$;1iAAp>*9uSWTm1@&<iAAi:@",
"$*6iu5%@&<yBne;@#*8gp8*$:2iAZy:$:3pDAp>$:1iDDp:*9iSEYv<@*<iVni:@",
"#*6uu6&@*1iAMe;@@&8pi5*$;2iABy:$:4sAZp<$:2pKKp:*9uZWTm1@=<ynxt:@",
"#&5ui6&#*1pAne;@@&8pi6*$=<iAMt;#;3jKAi:$;2sDAi;&9uCETM2$*<innt;+",
"#&6ui8*$*<pAme=+#*9pi8=$=1iBnr=@;3gKAi:$:3sAZy;&9uCWTm4$=1pSBy;+",
"#&6uu6*$&<iSme=+$*8ii8*$;2pABy;#:5jKAi>$:3sSAp:*9uCETm2$*<pDAt;+",
"#*6iu5&$&<iDMe;@$=9it5&$;3pDDp:$:5kKDp>$:3dKKj<*9uZETm2#&<pDZt;@",
"+$2re1%#&:qxk9*+@&5ue1%#*<tBBt;#=1iMvr;#=<tBBy:&8rvGGz<@$:evzq=+",
"$&6dp5@o@%5it2@X%=8gi6$o$&6sp6$Xo@:55;+o&:9js8$o%=4ee1@Xo@>96:@X",
"59vETx>@=2kPSt=$49mTPv1$;5xPKj>++$5re4%%29vTPz<+@*qvx9&+@*9gp8*$",
"5qvETv<$=2xTDy=%49vYPv1$:5zPKd<@@%4tr4&&5wMTPz<#$:qxxq=@$*9gp9*%",
"6wvTTv<$;3xTDy:&5emTPv<$:5xYKd<@@$2tr4&&5eCETv<$&:qxxe;@$*9gp8&$",
"69vPPv1$;3xPAy:&5eBETv<$:5xPDp:@@%2rr2&%5emTYv<#&:qzze;@#&6gp8&$",
"5wvYPv2$;2gKAy:&5wBEYv1$:5jKAi:+@%4tt5%&5wvYPx<#&:9zj9=@$*8pi8*%",
"5wnPPv1$;2pDDp>&50mETv1$:5kDBi:+@&5ur4%%5qvPYv<#%:qzg9=@$=8pi8*%",
"69vPKx1$:2pGKd:%40mTTv1$>5jDAi:++%5ue1%%4wvPPv1@$;qzg8*@$=9gp8*&",
"59xPPz<$:2iDDi;%29nTPz<$>5kPDp:++%5ur1%&5wmYPv<@$=qxg8&@$=8pp8*&",
"59vTIv<$:2iDSy;%5evPKz<$>6zPKd:+@%5ut4%%5eMTYv<@$;qxg8*@$*6pi9=%",
"12rpiw&@*:9it8&$15riuq&#;>9tu8&o+#>54:@#<2rpie=+#%4981%+@#:55<$#",
"&:rvxq$+:5jGSp=o$=9js5#X+$5tt2#o$:rnx9$X+$2tr4$+*1pDAi=o@&9zk9$X",
">5sGGg:&8rMETv1$&>tBve;@$=9gg8*&<5gKSi>@@*9gp6*&5wvTTv1$=<iABy:#",
">5gKKz>&8rMETv1$&>tBnt:@$*9pp8&%,5gDAp>@#=9ai6*&5wvPPx<$=<tBBi:$",
">5kPDp,*8rCEYv2$=<iBBi:@@*6ii8&$>5sDAp>@@*8iu6&&5evTPx<$;1iAZi:$",
">5kKAi,*8rBETm2$*<iABt;+@*8pi6&$>5sDAp>@@&8iu5&&5wmETx<#=2sDDp:$",
"<5zKAi>&8rmTTm1$&<uCBt:@#&6gp8*$>5jDDg<@@&9ai5&&5wvTPz,#=1pDDp:$",
"<5zKAi:&8rMTTv1#&>rnmy:@#&5pp8*$>5kKDg,@@&9gi5&&5evPKz<$;2pDSy;$",
">4gDAp<*8rCTTv<@&>rMnr;@#&6ii6&$,5jGSi>@@&6pi5&*7emPPv1$;3dKAy;#",
">5sDDg<=8rMETv1#&>rBve=@#*8ii6&$:5sGAp:@#&6ii5&&7rmTTm2$;2sDAi:$",
"<6gAZs<=8rmTPv2$=<rxjq=@$*6ut6&$:5pABp<@$&6tt6*&7rvKPm2$;2iZMy:$",
"&<rvgq&+:1qdpq&XO$<65>@ X@:86:@X#&5yt5$.X@<eq<@O=<8rr9%X@=8gp6$X",
"49vTPz<+$>rBBr=oo$5te1$o+%6gd6&O@=qnv9&O#-enne*o@&6pi6%+&1pGDi;@",
"9rMTPm4$=1tBBy:+@&6iu6*@$*9zzq=$&>yBme;$&>rnne=@$=9gp8&$>5gDSg<&",
"0uCTPv4$&<iZMt;O+%5ii8*@$=9gg9*@$:rBve;#&>tMne=@#*9gi5&$<5jDSg>%",
"9rCTPv2$&<pAMt;O+&5ii5&@$;qgs8&@$;emxq;$&<iABr;@@&9gi6*&<6jKGg>%",
"9rmYPv1$*<iZne;+@&5ut5%@$;qzg8&@%:enxq;$*<pABt:@#=9gp8*%<6kKGg:&",
"0rMTIm2$*<iBnt:@#&5rr4%@$;qzg8&#&>rvxq;$*<iZBy:@#&8ga8&$,5jPKg,&",
"wuZTIm2$*1pAMy:@#&4er4&@$=9zg8*#&>tmve;$*1iZBt:@@%6pp8&$>5jPKg<&",
"wuATYC4$=2sDAy:+@&5rr5&@$=9zg8=#&:rBmr;$=1iBMt:@@&6pp6&$<6zPPj1*",
"wuCTYC5$=1pDAy:+@&5er5%+$=9zg8*#$;eMne;$=1iBMt;+#*8pu4%%<8xTPj<*",
"wuMTTC4$*<pDAy:@@&5rr5&@$=9zg9=#%:enve;$*>tBBt;@@&6pi4%$<8vTPg>&"
};
