/* XPM */
static char *_8e25d22be404658882fd109c2c135afFyGna7tQX9MB74nD[] = {
/* columns rows colors chars-per-pixel */
"64 64 125 2 ",
"   c #301F17",
".  c #34231A",
"X  c #3A261C",
"o  c #3E291F",
"O  c #3F2B21",
"+  c #40271C",
"@  c #422A1F",
"#  c #442D22",
"$  c #492F23",
"%  c #463024",
"&  c #4C3125",
"*  c #4D3529",
"=  c #4F382D",
"-  c #523426",
";  c #593727",
":  c #533629",
">  c #56392A",
",  c #5B3B2C",
"<  c #4F3B30",
"1  c #563E31",
"2  c #5C3F30",
"3  c #623E2C",
"4  c #683F2D",
"5  c #5F402F",
"6  c #5D4031",
"7  c #64402F",
"8  c #69412F",
"9  c #644433",
"0  c #6B4533",
"q  c #674837",
"w  c #6C4836",
"e  c #634738",
"r  c #64493A",
"t  c #6D4B39",
"y  c #704633",
"u  c #744A36",
"i  c #7A4C36",
"p  c #744C39",
"a  c #7B4E3A",
"s  c #74513E",
"d  c #7E503B",
"f  c #755342",
"g  c #7B5441",
"h  c #7E5844",
"j  c #804E37",
"k  c #824F38",
"l  c #83533C",
"z  c #89563E",
"x  c #87583F",
"c  c #8A583F",
"v  c #92593E",
"b  c #845641",
"n  c #895741",
"m  c #865942",
"M  c #8C5B43",
"N  c #8B5A44",
"B  c #8E5B45",
"V  c #8C5D44",
"C  c #8D5D44",
"Z  c #8D5E46",
"A  c #835D49",
"S  c #8A5E48",
"D  c #8B5E48",
"F  c #905B44",
"G  c #915C44",
"H  c #945D44",
"J  c #945E46",
"K  c #985F44",
"L  c #985F45",
"P  c #935F48",
"I  c #8F6047",
"U  c #86614C",
"Y  c #8E624A",
"T  c #916046",
"R  c #986046",
"E  c #996047",
"W  c #9C6247",
"Q  c #936248",
"!  c #956048",
"~  c #946349",
"^  c #94654B",
"/  c #96654B",
"(  c #96644C",
")  c #9B6349",
"_  c #9D6349",
"`  c #98664B",
"'  c #9F644A",
"]  c #9F654B",
"[  c #9B654C",
"{  c #9C694E",
"}  c #876350",
"|  c #8D6350",
" . c #916651",
".. c #9B6F56",
"X. c #9E7058",
"o. c #A06447",
"O. c #A16649",
"+. c #A2684B",
"@. c #A36B4D",
"#. c #A56A4C",
"$. c #A66A4C",
"%. c #A66B4C",
"&. c #A46C4D",
"*. c #A96C4E",
"=. c #AA6E4F",
"-. c #AC6E4F",
";. c #A26D51",
":. c #A46E51",
">. c #A66E50",
",. c #A86F50",
"<. c #AA6F50",
"1. c #A67155",
"2. c #AA7051",
"3. c #AE7151",
"4. c #AC7253",
"5. c #AE7454",
"6. c #AF7454",
"7. c #AE7455",
"8. c #AF7455",
"9. c #A57459",
"0. c #B17454",
"q. c #B57857",
"w. c #B07758",
"e. c #B57958",
"r. c #B97A59",
/* pixels */
"@ $ 4 i u ; o . # & 0 n l 8 @ . & > u n l w @   . @ 3 a i , o . % : t C n 0 # . X @ 3 i i 3 @ . O & 0 l d 8 # . # $ , w q ; @ . ",
"$ ; l ) H i - # , w T ,.;.n ; # 6 p T ,.,.C > o # ; l ' R a : # 9 p / w.5.! , O # : a ) ) a : # > e M %.%.M ; # # : u n b w & o ",
"$ ; l ( ! a : # , w C 2.>.n ; % 6 p T ,.>.C , # & , l W R d > & e s ! 5.5./ 9 # & > a H H a : # > e n =.%.c , # & : u B n w & O ",
"$ ; d [ ) a : # , q C 3.=.C , # 6 t T %.%.C , # & , l _ R a > & e s / 5.5.! 6 # & ; p M H a : # > 9 M -.%.l ; # & : u B n w & O ",
"& ; d _ L a : # , q C =.%.n ; # 6 t C %.@.M , # & ; l ' ) a : & 9 p / q.0.Q , # $ ; a M G a : # > 9 M =.+.l ; # $ : i B n t & O ",
"& ; d R R a : $ , w C %.@.m > % 6 t C %.@.M , # & , l ' H a : & 9 p [ e.0.Q , # & , a C H d : # ; 0 M =.+.m , O # : p P N t * # ",
"- , d R R d : # , w H =.@.n , & 9 t C ,.&.C , # & , l [ Q p : & 6 p [ 0.3.T , # & , a D ! l : # ; 0 H ,.%.n , # # : p P n w : # ",
"& , d R R a : # , w Y ,.%.n , % 6 t C ,.%.M , # & , g  .| s : & 9 p / 0.3.T , # $ > i D H a : # , w H 0.%.c , # # : i H N u : # ",
"& , a R R a : # , w D =.=.C ; # 6 r U 1.2.C ; # & , d [ ! p : & 9 s / 0.5.Q , # $ > a M M a : & , w H ,.%.l ; # $ : i B n u : # ",
"- , a R W l > # , w H 3.=.C ; % 6 t } 9.3.T , # & , l ' R a : & 9 s [ 0.0.Q 5 # $ ; a H M p : # , q H ,.,.n , O # : u B n u : # ",
"$ - 0 i i 8 $ # , 9 d M c a * # > 6 s b l a - o # & 8 i u 8 $ # 2 9 d M n d - O # $ 0 i y 4 # O - ; u l l u & X # $ 3 w 0 , # O ",
"@ $ y z l 0 # X * , l O.' d & X # - p C M u # . X $ 0 z z y # . # & 0 n l 9 # . o & u v z y # . o $ 0 z z 0 # . X $ 0 l l 9 # . ",
"& ; a ! H a : $ 6 t Q 0.3.C , # - 3 l %.O.l > # & , l W _ l > O # > p H M w & # - 3 l W R l > O & ; a ) ) a : # $ ; a H C p * # ",
"& ; a H H a : # , w C 3.,.n ; # : 9 l %.%.z > # & , l _ _ l > # $ : p H N t & # - , l W T d : # & , d ) H i : # & , a H D p * # ",
"& ; a H H a : # , q M =.;.m ; # : 7 l %.%.z ; # & , l ) R l > # $ : u F C t * # - , l W Q d > # & ; d ) H i : # $ ; a ) ! p : O ",
"& ; a R H a : # , w C %.@.n ; # : 7 l %.=.z ; # & ; d ' R a : # $ : i B B p : # - 3 l R H d > # & > a ) H a * O $ : a ) H i : O ",
"& ; a R R a : # , w C =.%.C , # : 7 l @.+.l > # & , l _ L a : O & > a C C p : # - 4 l L G a > # $ : p P H a : # $ : a ) ! p : # ",
"& ; d R H a : # , w C =.,.C , # : 8 z @.[ l > # & , l ' R d > # & > p C B i : # - 3 l o.H a : # $ : i H H a : # $ ; a ) ! p & O ",
"& , a H C a : # , w C =.3.C ; # : 8 z %.' l : # & ; l O.R a : # $ : t B n w * # - 3 z +.W d : O # : u C B u : # $ ; a H ! a * O ",
"- , a ! H a : # , w C 3.3.C , % ; 8 c %.O.l : # $ ; l +.W a : O # : t N b w * # - 3 z +.o.l > O $ : u H M u : # $ ; a H ) a : # ",
"- , a B M p : % , w n %.@.C , & ; 0 c O.W l > # & , l _ H d > O # : t b l 0 & # - 3 l o.R l : # $ : a M z u : # & ; i M M u : # ",
"@ & 8 i i 3 # . & , p H C p & . @ - 0 k i 4 # . X $ 8 k i 4 # . X # 3 i i 3 # . + $ 4 i i 3 # . o & w n l 0 # . o * u n l 9 # . ",
"& , l O.W a - # 6 t / 0.3.C > X # : a H M w & X @ - a ) H i & o * 9 m %.%.l - X @ - i B n w & O 1 w I 5.5.C ; # 2 t ( e.5.C > o ",
": 8 c %.' l > & e f ..r.5.I 6 O & , l ) H i : # & ; l ) H a > & , q C 3.3.C , # & ; p P C p : & 9 p Q 2.3.Q , & e f [ e.0./ 7 # ",
"- 4 z +.R l ; & 9 s { q.5.Q , # & , d _ ) a : # & ; d R H a > $ , w H 0.3.C ; # & ; p H H a : & 9 s ! 2.>.C , & 9 s ! 5.5.! 7 # ",
"- 3 l O.W l ; & 9 s ( 0.5.Q , # & ; l ' ) a : # & ; d _ ) d > $ , w H q.0.C ; # & ; a R H a : $ 9 s [ 5.>.I , & q s Q 1.2.! 7 # ",
"- 3 l +.+.l , & 9 s { q.5.Q , # $ ; d _ ) a : # & , l O.' g > & , w H 0.3.C , # & ; a H H u : & e s [ 0.3.Q 5 * t s / 2.2.! 5 # ",
"- 3 l %.%.m , & e s { r.0.! 5 # $ : a ) ) a : # & , l ' ) d > # , q H 3.=.C , # & ; a R H a : & e f { 0.5.Q , * q s { 5.3.Q , # ",
"- 3 z %.@.b > & 9 s { e.5.T , # $ > a ) R a : # - , l O.R a : % 2 w H 3.=.n , # & ; a ) R d > & e f { e.0./ 5 * r s ` w.5.Q 7 # ",
"- 8 M %.{ g > & e s / 0.3.T , # & , d _ _ d > # - , l O._ a : # 2 w C 3.=.n ; # $ ; a _ _ l : & 9 s { r.w./ , & e s ( 5.3.Q 7 # ",
"- 8 M =.%.h > & q s { e.5.Q , # & , l _ ) d : # - 3 l %.' d : # , w n %.%.n , # & ; a ) _ l > & e s { r.e.[ 5 & r s / 5.5./ 7 # ",
"& , l W Q f = & 9 t I 2.,.C , # $ : i H M u * # & ; a _ H u * # > 9 l [ R l ; # & : y n M a : & e p T 5.3.I , % 9 t I >.{ A , o ",
"X # 4 a i , O X * , p H H p $ . @ & 0 z l 0 # . o $ 0 M l 8 @ X & ; u C M u $ X # & 0 l l 8 # X & : 0 z l 0 # . # : 0 a a 9 # . ",
"# : a ! H u & # , w D 1.3.C ; # > 0 C ,.=.M ; # - 3 c -.=.l > # , t R 0.0.R , % , 0 C =.%.n > # & , l +.o.a : # # : a H G u & o ",
"$ : p H H i * # 2 w C 9.X.C ; # ; 0 M =.=.n ; # - 3 z =.O.l ; & 6 t ! 0.,.C , # ; 0 M =.%.c ; # - 3 l O.W l ; # & ; u M n u * O ",
"$ : a H B u & # , w C >...m ; # ; e n %.@.l ; # - 3 c -.W l , & 2 w R 3.=.m > # ; 9 n 3.,.M ; # - , l W o.l > # & , a H C i : O ",
"$ : p H M w & # , w C 1...C , # > 9 n %.' l ; # - 8 c =.O.z , & , q C 0.2.n > # > 9 M 0.3.M ; # - , l O.W d : # & , d H H a : # ",
"& : i H B u * # , t T 5.2.C , & > 9 M =.%.c ; # : 8 c =.%.z , & , 9 C 3.3.H , # ; 9 n -.=.n ; # - 3 z O.W l > # & ; d R H a > # ",
"& : p H B a : # 2 w Q 3.3.C , % > 9 c -.%.z ; # - 8 M -.%.l ; & , 9 C 3.,.T , # , 9 n %.=.n ; # - 3 l O.O.l > # & ; d ) H a > # ",
"$ : i B B p : % 6 t I 0.3.C , # > 9 c =.@.l > # - 8 c =.+.l ; # , q C 5.3.H , % , 0 C ,.=.M ; # - 3 l W W l , # & ; d ! H a : # ",
"$ > p B B p : # 6 t Q 3.3.H , # > 9 c =.O.l > # - 8 n %.' l > # , w H 0.3.C , % , w H 0.=.n ; # - , l o.O.l > # & ; l ) G u * o ",
"& , p B C p * # 6 u R 0.3.C ; # > 0 C =.%.l > # - 8 M =.O.l > # , w T 5.3.C , % , 0 M -.%.m > # - , l o.O.l > # & , d R H p * O ",
"& & 9 u u 6 # # > 9 a l l u & @ : , i z l y & @ & - u l k 0 & # > , a m l p - # > , u l l u & o $ - 8 j l y & o $ - 0 i u 9 & O ",
"* 2 b ' ( f % . # & 0 l d 9 # X & , l R R a & X o $ 0 z l 0 # X & : i R H p % X * 6 m +.' d & . # - i R L i $ X * 6 b +.[ g * X ",
"9 t Q 3.3.I , # # : i H D t : # , w H =.%.n , # & > a H H i : # ; 9 z %.%.C , % 6 p [ q.0.I , # > 9 M =.%.l ; & e s / 5.5.! 5 % ",
"9 t Q 2.,.T , # # : i B m w & # , w C =.+.x ; # # : p H H i : # > 9 c O.' M , & 9 p ! 3.3.C , # > 9 n =.%.l > & 9 p Q 3.3./ 6 % ",
"9 t ! 5.3.T , # $ : i M n t * # , w H @.' l ; # $ : i B n i : # > 9 m +.[ l , & 9 t I 2.%.C , # ; 9 M -.=.l > & 9 s Q 2.2./ , # ",
"9 t / 0.2.C , # $ : i C C i : # , w H %.' m , # $ : u M n u : # : 7 m @.W l ; & 6 w I 2.,.C , # ; 0 M 0.-.c > & e s / 5.2.I , # ",
"9 p ! 5.2.C , O # - i ! H p : $ , w C @.' n , # $ : u M n u : # - 7 c %.W l ; % 6 w C 3.2.C , # ; 0 G -.%.z ; & e s ! 5.9.I , # ",
"9 p / 0.2.C , O # - p P H a : # , t C @.+.n , # & ; a C n i : # - 7 M =.' l ; % 6 t T 3.3.C , # > 0 C =.%.l > & e s / 5.3.I , # ",
"e p / 0.2.C , # # - u B H a : # , w C =.=.C , # $ ; a B M p : # - 8 M -.+.l ; & 6 t T 3.3.C , # > 0 n %.%.z ; & q s / 2.2.T , # ",
"9 p / 0.3.C , # $ : u B H a : % , q H 3.3.H , # $ : a F M i : # : 8 M -.@.c , & 6 w T 3.,.C , # > 9 n %.+.z , & e s / 2.2./ , # ",
"9 p T ,.%.T , # $ : u M F a > & 2 w C =.%.C , # $ - u M n u : # > 9 c %.' c , & 6 t H %.@.C ; # > 0 n O.W l > & r f / 2.1.! 5 # ",
"* , p z l u & . . # ; u u 3 # X & > u l z u $ . . @ 3 i u , # . @ & 8 l i 0 $ X & , u l l u # . @ - 0 i i 0 # X < e l R H d * . ",
": 9 x O.R l > X @ - u G M u & o * 9 l O.O.l - X @ ; k +.W i - o @ - i R H i - o & , l %.O.l & X @ : a H G u & # 6 t / q.3.I , o ",
", q C %.{ m , # & , a R H p : # > 9 c %.%.n ; # - 3 l %.o.l > # - , l ' R l > # - 3 z ,.%.l > # & , d R R d : & e s / 0.3.Y 6 % ",
", w H 3.;.m , # & ; a H G u * # : 8 l O.%.z > # - , l O.R i : # & , l O._ d > # - 9 c %.%.l > # & , d ' _ d : & 9 p Q 3.2.I , # ",
", q C 5.1.m ; # & ; a H G u : # > 8 l ' O.l > # & , d W R a : # & ; d O._ d : # : 9 c %.O.l : o & , d ' R a : & e p T 2.2.Q , # ",
", 0 C 3.3.m , # & , a H H p : # > 8 l W R l > # & , l W R l : @ & ; d O._ a : # : 8 z %.%.l : o & , d W R a : $ 9 p Q 3.5.Q , # ",
", 0 C ,.=.n ; # & , a H Q a : # > 8 c O.R l > # & , l W W l > # & ; l O.H a : # - 4 z =.O.l - o & , l R H d : $ 9 p Q 5.5.Q , # ",
"2 w H 3.%.l ; # & ; i H ) l > # : 8 c +.' l > # & , l O.W l > # & , l _ R a : # - , z O.W l > o & 3 l R R l > & 9 p ! 0.5.Y 6 % ",
"1 q H 3.@.l ; # & ; a _ ) d > # > 9 c %.%.z ; # - 3 l o.W l : # $ ; l O.[ g : @ & 3 l O.O.l > # & , l _ ) l > & 9 s / 5.1.I , # ",
"2 q M =.%.l ; # & ; a O.) a : # : 9 n =.=.c ; # - 3 l o.W l > o $ ; d ' [ f = # - 8 z %.%.z > # & , l _ _ l > & 9 s / 5.1.I , # ",
", 0 M =.+.l ; # & , l O.R a * # : 9 n =.=.c ; # - 3 l %.O.l > @ $ ; l ' [ f = # : 8 z %.=.M , # & , l ' ) l > & 9 s ( 5.2.I , # "
};
