/* XPM */
static char *a9c2d662707a45c68551c80efcfda203ZTIUsuXCUa1aqK3m[] = {
/* columns rows colors chars-per-pixel */
"64 64 145 2 ",
"   c #47411E",
".  c #4F4C1E",
"X  c #534F1E",
"o  c #5C5417",
"O  c #5D561D",
"+  c #5F591C",
"@  c #635C1E",
"#  c #474026",
"$  c #4C4624",
"%  c #4D4A22",
"&  c #4C442A",
"*  c #524C24",
"=  c #51472C",
"-  c #544C2C",
";  c #5B5423",
":  c #5F5B26",
">  c #56502C",
",  c #5A542D",
"<  c #5E592C",
"1  c #554B31",
"2  c #594F33",
"3  c #575031",
"4  c #5D5433",
"5  c #5F5932",
"6  c #5D5438",
"7  c #645C25",
"8  c #685F24",
"9  c #635D2C",
"0  c #685E2A",
"q  c #635C34",
"w  c #615638",
"e  c #655B3A",
"r  c #695E3D",
"t  c #666024",
"y  c #6B6425",
"u  c #6E6926",
"i  c #66612C",
"p  c #6B642C",
"a  c #6F692C",
"s  c #716C26",
"d  c #70672C",
"f  c #726C2D",
"g  c #76702D",
"h  c #79732F",
"j  c #666133",
"k  c #6B6533",
"l  c #6E6934",
"z  c #666138",
"x  c #6C643C",
"c  c #6E693A",
"v  c #706637",
"b  c #746D33",
"n  c #786F34",
"m  c #706739",
"M  c #736D3B",
"N  c #786F38",
"B  c #767133",
"V  c #7B7434",
"C  c #7E7935",
"Z  c #76713B",
"A  c #7C753B",
"S  c #7E793B",
"D  c #6E6440",
"F  c #706641",
"G  c #746B43",
"H  c #786E46",
"J  c #7A6E48",
"K  c #777241",
"L  c #7B7443",
"P  c #7E7942",
"I  c #7C7249",
"U  c #817B36",
"Y  c #80773D",
"T  c #837C3C",
"R  c #847D42",
"E  c #887F42",
"W  c #81774D",
"Q  c #837B4B",
"!  c #877C50",
"~  c #838034",
"^  c #86803D",
"/  c #89833E",
"(  c #8C893E",
")  c #868142",
"_  c #8B8443",
"`  c #8E8944",
"'  c #868149",
"]  c #8B8549",
"[  c #8C8549",
"{  c #8C8748",
"}  c #8F8748",
"|  c #8D8849",
" . c #8E894A",
".. c #8F8C4E",
"X. c #908B45",
"o. c #908947",
"O. c #908C45",
"+. c #908749",
"@. c #918A48",
"#. c #928B4A",
"$. c #938E4A",
"%. c #948F48",
"&. c #958F4A",
"*. c #908D4E",
"=. c #948D4C",
"-. c #958D4D",
";. c #949047",
":. c #939049",
">. c #95904A",
",. c #96914C",
"<. c #97924E",
"1. c #98934D",
"2. c #99944E",
"3. c #9C984E",
"4. c #8C8451",
"5. c #958E51",
"6. c #988F51",
"7. c #969151",
"8. c #999151",
"9. c #999252",
"0. c #9A9451",
"q. c #9C9751",
"w. c #9B9255",
"e. c #9E9754",
"r. c #9C9850",
"t. c #9F965A",
"y. c #9C9958",
"u. c #A19B56",
"i. c #A19C55",
"p. c #A29D56",
"a. c #A0975A",
"s. c #A39C59",
"d. c #A59F5A",
"f. c #A4A056",
"g. c #A4A156",
"h. c #A6A05B",
"j. c #A6A15B",
"k. c #A8A35C",
"l. c #ABA65E",
"z. c #ACA85D",
"x. c #A89F61",
"c. c #ABA462",
"v. c #AEA962",
"b. c #B1AC64",
"n. c #B4AE6A",
/* pixels */
"A r.l a 2.1.1.T j.u.q.o.i ` U _ V ,.U p T u.j.&.V _ T O.` U T T | < U @ { T { o.U T T C 0 y C B / U T r._ { U T f a _ { B R T -.",
"V &.i b p.&.$.^ j.q.#.` l U V _ A ,._ f ` 8.p.O.B T V ` ^ T U T { 9 V O ` Z #.` V / V A 9 y A U T U _ g._ o.T C g a T { C R #.0.",
"U ` 9 v k.o.) ` k.q.{ ] l V B T b 2.T B >.u.,.T V ) N T T ` T V ) 7 B 7 O.N ) T h ` T { p y N T B U { p.{ &./ B s p T { C ) -.-.",
"` _ 9 v l.$.R { d.q.) *.b f V ^ A r.{ b :.j.{ B T { Z _ ` $.` V ) ; V a T A { b u ` ^ 0.n u C _ f U _ #.>.q.` U f b / R T E 8.w.",
"` o.b P z.| ^ ` e.$.A ..T f V C Z ,.{ S ` j.&.U _ ) N ` ,.>.&.A R 7 B f _ { ,.b f &._ 8.U s ^ _ y _ T { 1.1.` / C T ` T R _ e.j.",
"` o.b R r._ ` o.r.{ T ) ) f T V v $.-._ A e.0.h _ ) M o.u.&.o.n T 7 f f _ +.j.V V >.| 8._ h ` ` f 2.{ o.2.$.` / V / o.T ) { 8.c.",
"T >.A R 0.T >.$.1.A b Z ) f U l < C 8.V b -.,.t _ R j _ *.) C p T + i p T -.0.b l ` R #.#.B T { f *._ A $.` T V a T U / R #.,.u.",
", Z l M K i S Z M j q 3 G q z 4 & q 4.z - G c   M G - q c 3 > 4 j , - * q K M - j c q G P m z Z k z z q K m x q x M q c , I Q R ",
"w H G H e 4 x D r x e 1 G F x e # 3 4.x 4 G 4 = x G 3 e I 6 4 e I x e 4 q H D w I D x Q ! H r D I G G G I H I G G H x x - J W I ",
"q K m M , < M l Z l k j P l k b X < 5.l 9 R k : R A i l P x , 9 S l 9 P A R Z q Z b c P ) Z l N l ' j < Z l R M Z A b l k R R P ",
"_ -.V ` l B ` C >.^ C R e.C _ / g A n._ ^ ,.U C 6.#./ 2.0.R k b _ &._ p./ T ] T ) V ` $.u.T T >.C e.V f ` _ &.T { E C V ` -.#.5.",
"` 8.S >.n h &.V 1./ u | p.V 1._ s T n.#./ #.U U { o./ 2.0.C l S ` -.$.1.T A ] T R k _ ^ e.U ^ p.C w.f B { ) 1._ { _ f U T &.>.7.",
"T { b _ b f ` T #.V 7 7.j.V 2.R f ` c.$._ O./ ^ +._ ^ ,.e.T l S { { #.{ T K #.^ ) m S V d.` ` ,.B -.a U O.) p.^ #._ 7 C B &.` ,.",
"T ) b U b d ^ $.-.A i w.e.V _ R f ` 6.{ ` / ` / -.2._ &.r.U b A R { #.E A P #./ | Z ^ V j._ { ,.n #.f T ` _ 1.U 1._ 7 C B ` T { ",
"^ T B T n V o.1.8.U f 8.-.V T ) U #.#.` >.` O._ &.0.&.o.$.T b o.E ) q.` A _ O.` 8.A / g a.) ` 2.V ` V O.T A o.h 1._ p T V T ^ &.",
"^ S B / n u ,.e.0.V f 8.) b l N S R T C _ ^ ^ V R { R R R Z 9 #.T S *.T b ` ) R | k b 7 8._ ) R C ) B ` a l C a R C p C B V A _ ",
"k q > l , . B ] ' i * G x , 3 - x 4 4 M G q , > x I q 5 M q - G 5 x Q 4 4 M M x G - $ > R M c q M z 5 x $ * q , q e - k q , j , ",
"x r - r e & F I W G 1 D G e 4 # x e 3 G H D 4 - x W J G G 4 4 F 2 r Q q q I G x I F 4 e I D r e F x x D w 2 x q 4 x D I G G F & ",
"Z l * q x - Z ..A b Z Z l j j % N P M R ] R k 9 A 5.R ' K k i P j Z 8.b n -.Z c M k i q Z j , j l N x M ; j Z j q 5 l 9 l R P , ",
"o.C f ) ) i _ l.#.T 8.$./ T S B ` #.T ,.g.r.{ ^ -.v.s.d.2._ A 8._ q.v.` / e.) R { ^ V R o.T a V ^ ,.R ` g / / T ) _ ` p T #.q.T ",
">.T f E *.b #.u.-.{ 8.R ` V C f U _ ) q.8.5.#.^ -.c.t.j.>.` T q._ u.u.O./ u.T A ] _ V _ #.^ a C ^ 2.{ T B R T ^ o.0.,.p A -.p.` ",
"{ / V { ] l | 0.1.1.j._ o.n C V _ E { j.-.s.0.) $.c.a.e.>.) R -.U { -.o.^ p.T / R #.C T *._ a T / ,.8.B U R / ` { 0.1.l A 8.j._ ",
"T / / 1.{ b #.,.-.0.l.` >.C B T 2.) _ k.&.a.u._ { s.8.-.2.T A { n { { 2.O.e.U ^ ] #.C A 8.R a A >.2.r.a T ` ^ ` _ -.,.l R e.u.T ",
"_ T _ 1.| S ,.o.-.8.s.` $.^ b A 2.#.) q.&.e.r.` R _ #.>.q.T T ` T { C p.e.6.V ` | { T ) w.R b B r.2.u.f T T ` o./ #.0.A $.q.#.B ",
"{ T _ r.| R 7./ q.8.1.-.o._ B U >.-._ 1.O.p.r.E S b { ` { R T $.o.-.s e.j.5.V &.R | / T w.R b A q.0.q.n ` T ` >.` $.0.A R e.{ B ",
">.` _ 3.] P -.C 6.e.2.e.{ { n T ` -.U >.` 2.1.` T f ` R R { _ o./ ,.u e.j...V _ R | R Z 6.L T V p.q.r.V _ T ` _ / $.1.Z A j._ C ",
"2.-.` ,.R R -.B e.e.>.k.,.$.v T _ 1.T >.` 1.o.O.T C #.R P #.T ` ` &.7 0.s.{ A A Z Z Z V 6.K ) V p.0.e.A ^ T ` A / >.O.k Z p.Z V ",
"0.0.` 2.U Z { n e.1.` k.r.-.b T ` 1./ _ ` O.` O.U U -.) R #.V T _ ) ; -.d.| R b A A V V | L { U p.q.q.V _ T ) Z ` 1._ l A u.b V ",
"e.j.>.2.U R ) B 0.2.o.d.r.-.A R ,.r./ A _ O.` o.V T 0.) Z #.B U _ R 9 0.k.6.$.p Z T A V | P ` _ r.d.j.V T B #.A ^ { T V _ u.b V ",
"e.p.1.u.^ R _ V -.>.0.j.p.7.Z R p.$.^ Z R / ^ ` T { e.A 9 { n f T ) p s.v.6.,.p Z n A V #.P ` o.r.j.b.V Y f *.N T R T V #.1.d U ",
"-.*.#.s._ { T b #.>.0.j.p.8.Z A a.{ U b A V S { ` #.d.U ; { b p U { b e.c.w.q.p A f T U #.S o.O.r.q.v.V V g -.k Z A _ B -.{ f T ",
"-.-.#.c.#.&.V f { o.j.d.p.e.A R d.*.V n T V Z _ o.1.l.` + { T 9 T { V a.t.8.0.f _ b U U { C { $.&.) e.U V h ,.b Z U #.V 0.T V V ",
"1.#.] v.-.&.b p ` >.j.d.r.p.R R a.7.T U T Z A _ o.q.t.,.@ &.` ; R $.T a.e.1.#.V O.b V ^ T V #.{ { R 0.T s f u.U T U 0.A 0.V C B ",
"$.{ R a.-.r.v p ` 2.u.u.,.-._ ` 8.-./ U R U A T ^ 8.u.8.7 >.o.7 { _ ) e.e.0.#.^ o.N T $.T B ,.` #.R #.T s f s.{ T T 6.A ,.V V V ",
"/ &.N w.{ 0.A b / 2.q.q.r.{ E { { ] T _ T _ T T V 8.q.j.p ` _ a { R ] w.q.#.o./ { P R #.` C #._ -._ R ) V s e.8./ _ 0.T q.A C ( ",
"^ $.l e.E q.` a U &.1.1.2.{ ) _ E { T -.T / _ _ f u.{ 8.V ` _ g ,.{ ] w.j._ T V T R { 8.` V #.{ 8._ _ 5.C f #.8./ { #.^ s.N C ` ",
"b #.9 8.T #.{ 7 A #.>.&.$.o._ _ { #.T q.V ^ #.` s q.) { C ^ / f 2.O.{ s.l./ U ^ b R _ 1.` U -.O.e.T R 6.C g ` -.T ,.R U e.R U ` ",
"9 ) 9 &._ { +.7 V _ ` ) ` O._ _ $.#.A e.b V o./ s e.U U / U T n { ` o.e.g.T T _ k ] ` 1.` ^ ,.` j._ Z 6.R V ^ #.U 1.Y V 0.-.` o.",
"9 R p { o.| w.p C V T ^ _ ` U T { _ A u.V f { / U p.V T ` V U n ^ 1._ | 1.U V T N 5.$.0.) o.,._ c._ l #._ V B 2.T 1.A V &.0.>._ ",
"p R i _ ` { w.7 f V A A T A V T ^ A A j.V f o.A T #.b T ` T U B ^ s.R ..O.V f A S 7.) ) Z $.{ _ k._ i 4.) B g &.` $.A ^ { s.&.) ",
"h _ 9 _ T Y #.7 f B R b R T U _ T l R l.U V ` A T _ A ^ &.T U V U d.T 5.O.V p b R 7._ ) Z { E R s.R b 8.) f f { ` &.T _ R v.&...",
"U ` f T V n E p h B R Z { S V T U p T d.T V $.T C T ^ ^ $.U V V U v._ 7.;.V f b _ 6.2.,.A 2.) R a._ B p.T n U _ T #._ O.o.d.o.-.",
"^ U B U B B ) i V V i c R M p A b i U r.A 9 R C V A ) V C V p y b s.) R C V f p S P >.*.b -.S A 8.T p ,.b k B U C { B ^ ) e.` R ",
"z , , q i : j % < , , 4 e - - x x 4 x Q q , M z q x x x , x q 4 z I e e 4 G x = 5 e P ' j x q x K K 4 L q 5 q q e I q x z M c > ",
"F w 4 4 G 4 4 = 4 4 e w 3 1 - x z 4 G M w 4 F F 4 c G x 2 M q 4 x G e e 3 z L 3 w e H Q I H D G G G 3 G 2 4 3 4 q Q e x e r G 2 ",
"l 9 p k Z p 9 * < p p k j j 9 ) S k ) ) l < S A Z ` y.N j T V < l T N l l b _ f l i R | p v Z b Z A k P i k 9 l T $.l M M k M q ",
"^ f V _ ^ / V u A o./ / ` _ n &.` n R #.U U >.{ #.u.b.{ A ;._ k T O.) N ^ T _ f B g _ -.f B ] -.^ >.` &./ _ C ` >.g.` ) 8._ { { ",
"T p B _ _ >.f p A _ T _ o.{ n &.` B Z #.o.T o.-.q.s.b.| S 1._ 9 T ) _ C ^ T T y y g R | h f ) 7.A 2.O.$.>._ S O.>.r.O.{ u.` ) R ",
"R 9 U ` { p.f p S R { ` &.#.V ( ^ V V o.o.V { u.s.k.b.,.C _ #.9 ) Z { ) T / ^ y f ~ R 0.h B R 6.A 1._ ` 2._ T _ O.1.` _ e.` T Y ",
"#.j V o.{ p.f p ) _ ,.T _ #.V C / ( C ` _ A T e.s.v.k.,.U T -.l | P _ _ U / U @ C U ) 2.f U ) { V 1.T T $._ | ^ _ 1.V ^ e.#.U V ",
"7.j n O.$.,.f n #.O.r.B T -.Z p T ^ f _ 1._ T a.s.v.p.0.T ^ #.b *.P O.] B ^ T o C ^ R ` f / ) A V ,._ T o.) o.T T #.f O.a.R T V ",
"e.k p &.-.,.f V 2.2.r.f T 2.T 8 T V f T 2.R U d.e.l.$.1.U U -.Z -.) 3.*.l V R t V _ R _ C _ { n U r.{ T ` _ &.T U >.f &.e._ U f ",
"u.c b o.-.0.f T 1.>.{ 7 B #.^ i C B l V _ C C l.u.#.T ,./ B _ A $.T >.P i B R p C _ _ ^ U T _ V T $.R T T Z T b A _ a ` e.) V i ",
"K q j M M P 9 9 R R M , j P c , , q 3 3 x q 9 5.Q G z M M k M x j j Q q q x M q M Z M Z 9 k Z k q Z c k l 5 - q z m * Z R x i < ",
"r x F x 4 x r e I I D r H 4.F e 4 x F e r 1 2 Q I I G e r x D x e G Q e z G F r F r x G 2 e I r w G r e D e 2 G e D w Q H D 2 3 ",
"q q z x q x x x A ' Z 9 k P N q < K l l k * 9 R ] l k j A M v Z Z A ] < k b j 9 l k R S l N N b k M M m v Z 9 S q M k R R M < q ",
"V b R ` C ) 5.` B p.r./ C _ &.U b r.T V U f ^ q.j.T T U >.` U ` o.o.j.V T _ V b ^ U p.>.O.^ T / / ` ) T / o.U 1.A _ O.q.p.R B T ",
"T A | 1.T $.k.&.h p.8./ C ^ &.C V e.V p U p _ ` j._ T U >.{ T T / O.r.B O.` V Z V V k.O.` T Z T ` ^ R T U ` U &.A Y _ 8.p.) U ) ",
"T T | $._ #.c.-.{ e.#._ h V _ V U -.B ; V p _ { q._ R n &.T U T ` ` -.B >.o.T R p f a.T T _ A U $.C S T A ` U o.C A $.u.u._ ^ _ ",
"/ _ { T A -.v.,.r.q.#.T s U / _ T 8.V X b b ,.e.8._ ` n { V f V T V { f ,.` T _ p a a.V U _ T _ 2.V A T R { U o./ U >.u.q._ ^ ^ ",
"/ ` ) p p 1.b.,.u.0.$._ t U / o.T -.n ; b Z 0.j.,._ R f ) V u B / B #.u 1.^ T _ B y e.B A _ T / $.V A Z ) $.T o.O./ o.e.2.O.T T ",
"U O._ p b u.b.{ d.u.,.1.u T T &./ -.B t V E e.j.$.{ T f T V f V O.f _ s q.T T o.T u ,.f Z ^ T / o.n V T #.$.` ` _ ^ $.e.) _ / _ ",
"U >.U y V q.v.` k.a.8.q.y C T #.T 1.f a A r.j.r.o.#.V n C V V V ;.p _ y 8._ / &.T p >.V b V _ T / f b _ -.1._ / ^ T >.q.S T / _ ",
"S r.A 7 T &.u.` k.e.u.1.7 U T _ B ,.f f T p.j.$.T #.U U ` B ^ U 1.9 U @ #.T T ` T f o.C l f ( V V f n >.$.1.U T T B o.q.S _ / o."
};
