/* XPM */
static char *_c563e6795f544269aaf399a0b11041dBnkA8253UIJzD2Hm[] = {
/* columns rows colors chars-per-pixel */
"64 64 127 2 ",
"   c #372416",
".  c #392617",
"X  c #3B2718",
"o  c #3D2919",
"O  c #432B17",
"+  c #452D1B",
"@  c #492E1B",
"#  c #47301E",
"$  c #4B321E",
"%  c #55351E",
"&  c #59371F",
"*  c #57381F",
"=  c #59381F",
"-  c #4E3521",
";  c #4F3825",
":  c #513622",
">  c #583720",
",  c #553923",
"<  c #5D3C23",
"1  c #563E2A",
"2  c #5B3F29",
"3  c #613E24",
"4  c #613F28",
"5  c #5F4027",
"6  c #5E422B",
"7  c #5C4330",
"8  c #624125",
"9  c #6A4427",
"0  c #644329",
"q  c #6C4629",
"w  c #66482F",
"e  c #6E482A",
"r  c #714727",
"t  c #714729",
"y  c #724A2A",
"u  c #7B4D2B",
"i  c #7D502E",
"p  c #604531",
"a  c #664931",
"s  c #6B4A31",
"d  c #7C5130",
"f  c #814F2D",
"g  c #84532E",
"h  c #88552F",
"j  c #865430",
"k  c #8A5631",
"l  c #8D5A33",
"z  c #865E3E",
"x  c #8E5F3E",
"c  c #905632",
"v  c #945D35",
"b  c #995F35",
"n  c #935E38",
"m  c #995F38",
"M  c #8D613D",
"N  c #966137",
"B  c #996237",
"V  c #95623A",
"C  c #986338",
"Z  c #996338",
"A  c #98623B",
"S  c #9C6339",
"D  c #9A6438",
"F  c #9E663A",
"G  c #9E683C",
"H  c #A06236",
"J  c #A0663A",
"K  c #A1663B",
"L  c #A0683A",
"P  c #A2683B",
"I  c #A2693C",
"U  c #A36A3C",
"Y  c #AB6C3C",
"T  c #B16E3E",
"R  c #AF723F",
"E  c #B3713D",
"W  c #856041",
"Q  c #8F6140",
"!  c #926542",
"~  c #986941",
"^  c #AC6D41",
"/  c #B36F40",
"(  c #AE7342",
")  c #AE7244",
"_  c #AC754B",
"`  c #AF7A4E",
"'  c #B57443",
"]  c #B67543",
"[  c #B77743",
"{  c #B27445",
"}  c #B27644",
"|  c #B27645",
" . c #B47546",
".. c #B87543",
"X. c #BA7543",
"o. c #BA7544",
"O. c #B97747",
"+. c #BC7645",
"@. c #B67945",
"#. c #B87945",
"$. c #B97A47",
"%. c #BD7A45",
"&. c #BF7D47",
"*. c #B37649",
"=. c #B7784A",
"-. c #B2794E",
";. c #B57A4C",
":. c #B8794A",
">. c #BC7B4A",
",. c #BD7D4D",
"<. c #AE7B54",
"1. c #B27A50",
"2. c #B67D52",
"3. c #B87C50",
"4. c #BD7F50",
"5. c #C07B46",
"6. c #C17C46",
"7. c #C27D46",
"8. c #C47E47",
"9. c #C47D49",
"0. c #C57F48",
"q. c #C97E49",
"w. c #BF804B",
"e. c #C48047",
"r. c #C78148",
"t. c #C5814A",
"y. c #C98249",
/* pixels */
"@ % y b v r @ . O % r v v u $ X @ % u v c r @ . @ % r c k e @ . O $ e b c y $ . @ % u b l 9 $ X O % u b c y @   O % y m m y $ . ",
"< e D &.$.v < $ < 9 C $.o.C 0 - < y J %.%.C 0 - < 9 b ..o.C 0 - > 0 V $.$.V 8 $ < 9 F 7.%.C 0 - < t J ,.=.S 0 $ < 9 D 8.e.F 0 $ ",
"3 y F 7.%.N 8 - < 9 b  .) b 0 - < y J 5...C 0 : 3 e n 5.%.C 0 : < 0 N @.} V 0 - < e C $.7.F 0 : 3 y S 3.-.b 0 - 3 y F t.7.F 0 - ",
"3 y L 8.%.C 0 - < 0 n } ) b 0 - < t J %.' V 0 ; 3 t C 5.+.n 0 : 3 e D $.} V 0 - < y D $.%.F 0 : 3 t V 1.;.V 8 - 8 y L 8.7.F 0 - ",
"< y F 7.$.C 0 - < w n ..o.S 0 : < e D %.o.V 0 - < e b o.O.C 0 - < e F 7.$.N 0 - < y F %.$.D 0 : 3 e V 1.=.C 0 - 8 y I t.9.L 0 - ",
"< y F 7.%.D 0 - 2 w n +.+.S 0 - < t F ..' V 0 - < 9 m +.o.C 0 - < e D 9.&.F 0 - < y F 7.%.N 0 : 3 e C 9.7.F 0 - 3 y I t.7.F 0 - ",
"< e F 7.%.F 0 : < e V $.o.F 0 - < y J 5.o.C 0 - < 9 C %.+.C 0 - < e V &.:.D 0 : 3 y I t.7.D 0 : < e F 5.5.C 0 - < y F 8.7.F 0 - ",
"< y J 9.%.F 0 : < y F %.%.J 0 - 2 e F 9.5.C 0 : 3 e C +.o.C 0 - < y C %.' D 0 : 8 y F t.7.F 0 - < e C >.o.C 0 - < y N $.%.V 0 - ",
"< y J t.&.D 0 - < y F 5.%.J 0 - < y C 4.,.F 0 : 3 t m ' ' b 0 - < y I %.$.C 0 : < e C 7.%.D 0 - < y J 9.%.V 0 : < e C %.$.V 0 - ",
"< y L 9.%.N 0 - < y F %.%.F 0 : < y C 2.3.C 0 : 3 t S +.' b 0 - < y I 7.$.N 0 - < y L 9.%.D 0 - < y I 9.5.C 0 : 3 y F &.$.V 0 - ",
"> < g v c u : # < 3 g c c u < $ > 3 i n c u : $ < 3 g c k u > $ > 3 g N v i < $ < 9 k C v u > # : 3 j m v u < - < 9 j v l u > $ ",
"$ < h Y Y g $ o $ 3 l Y I k > + $ < k ^ L g - o $ < k Y U h : o $ < k E Y k > + - 3 c ' Y j - o @ 3 c T Y h : O $ < k Y Y h : o ",
"< e C $.@.V 5 $ < y L 7.&.F 0 : < e J ,.*.V 0 : 8 y F %.$.C 0 - < e D 7.&.F 0 : 0 y F 9.5.C 0 - < t J 7.o.m 0 : < e C +.%.S 0 - ",
"< e C @.} N 8 $ < y I t.t.F 0 - < e F %. .C 0 : 3 y G %.' N 0 - < y G w.$.N 0 : 3 y S 5.5.S 6 - < e S 7.>.C 0 - < e C %.+.C 0 - ",
"< e C @.@.C 8 $ < y I t.7.D 0 - < t J 5.' b 0 : < e D %.$.D 0 - 8 y G e.7.N 0 - 3 y S 5.+.C 6 - < t S 9.+.C 0 - < t J 9.5.C 0 - ",
"< e C $.@.C 0 - < y F 8.%.C 0 - < y J %.' b 0 : 3 e V $.$.F 0 - 8 y G t.7.D 0 - 3 y F 5. .V 0 - < e S %...b 0 - < t J 9.5.C 0 - ",
"< e B %.$.C 0 : < e D %.%.F 0 - < e C %.*.V 0 - 2 w V &.7.L 0 : < e D &.$.C 0 - 2 y J 8.%.V 0 - < e C ..' b 0 : < e C 5.5.S 0 : ",
"< 9 D e.$.C 0 : < q D 7.7.F 0 - < t F 9.>.C 0 - 1 a V 9.9.L 0 : < e V ' @.D 0 : < e F 8.%.C 0 - < e C ' ' b 0 - < e C >.>.C 0 - ",
"< 9 B e.$.M 5 - 3 q ! &.%.N 0 - 3 y S 5.5.C 0 - < y D &.9.I 0 : < e D %.$.D 0 : < t J q.9.C 0 - < t S +...C 0 - < 0 C 4.;.V 0 - ",
"5 q B %.} M 5 : 3 y ! $.' N 0 - 3 y S 5.+.C 0 : 3 y C $.%.L 0 : < e D ' @.F 0 - < y G 9.7.C 0 - < e S %.o.C 0 - < e C 7.o.n 0 - ",
"8 e N ( ( N 0 : 8 y D ' } N 0 - 3 y C o.o.C 0 : < e N ( ' F 0 : < e V } R D w - < y C _ } b 0 ; < e b ..' m 0 - < e b ' T n 0 - ",
"# * u N v u $ o @ < u C v u - o @ > u S m u : o @ * y b m u : o @ < g C v i - o @ % y C m u - o @ % u B m u - o @ & u m b u - X ",
"% 9 N $.' l 2 + % 9 N $.' v < # % 9 b  .' c < @ % 9 b ....v < @ % 9 N %.$.v < @ % 9 l $.$.N < # % 9 N ..' l 2 @ % 9 m +.' b < @ ",
"8 y C &.$.C 0 - < y F &.$.D 0 : 3 y C ..' n 4 : 3 w N $.o.C 0 : 8 y D &.$.C 0 : 9 y D 7.&.G w > 9 y G 7...v 0 : 3 y J 5.o.C 0 - ",
"9 y N $.$.C 0 - 8 y F &.7.F 0 - < e C %...b 3 - < 0 N ' ' v 0 : 8 y D $.$.D 0 - 8 y G t.7.F 0 : 3 y F 7.%.v 5 - 3 y S 5.+.C 0 - ",
"8 y F &.$.N 8 $ < e V $.7.L 0 - < e C 5.+.C 0 - < e C ' ( v 0 : 3 y F &.%.D 0 - 8 y I y.9.D 8 - < e V 9.$.N 5 - < y S %.+.b 0 - ",
"8 y F 7.&.N 8 - < 9 N $.$.F 0 - < e S 5.+.C 0 : 3 y F %.} b 0 - < e F 7.$.V 0 - < y L t.>.V 0 - < q V %.%.C 0 - < y J 5.+.C 0 - ",
"8 e N &.&.N 0 - < e N &.$.V 0 - < e S 5.+.C 0 - < e C 9.o.N 0 - < 9 V >.-.V 8 - 3 y I t.&.D 0 - < e C %.%.C 0 $ < t J 5...n 0 - ",
"8 e N &.7.D 0 - < y D e.9.C 0 - < e S 9.5.S 0 - < e V >.$.C 0 - < 0 V $.` V 0 - 8 y L t.%.C 0 - 3 y F &.%.D 0 - < t S %.o.V 0 - ",
"3 e D 7.7.F 0 - < y G t.t.F 0 - 3 e C 5.5.C 0 : 3 y F 5.%.D 0 : < w V $.' V 0 : 8 y G 7.%.D 0 : 3 y G 9.7.F 0 - < t C +.' n 0 - ",
"8 y L 7.&.F 0 $ < y G e.7.F 0 - 3 e b o.%.C 0 : 3 y J q.9.F 0 : < e N $.$.D 0 : 8 y G 7.7.L 0 - < y L 7.%.D 0 - < t C +...b 0 : ",
"< e N ' ) l < $ > 9 N ' ' v < $ < 9 k Y Y c 2 - < e C ..' v < - < 9 k Y Y l 8 - < 9 v ' ' N 5 $ < 0 v ' Y l < - < 9 l ' / c 3 - ",
"@ & u S m y @ X @ = u b b u $ o @ & u b v y $ X @ % u B n y $ o @ % y c c y $ o @ % u B C u $ o @ % u m b u $ o @ % u m v y $ X ",
"< t J 9.+.b < - 3 y D $.' C 0 - < t F %.o.C 0 - , e F %.%.F 0 - < y C  .o.C 0 - < e F 7.$.D 0 $ < e F &.&.G 0 $ < t S o.} n 0 - ",
"3 y L 9. .c 3 - 3 y C $.' D w : < e F 7.%.S 0 : 2 e F >.7.G 0 : 3 y F :.$.F 0 : < y F t.&.D 0 - 3 y L t.7.F 0 - < t J 5.o.C 0 - ",
"3 y J >.*.n 4 - < e C %.%.F 0 : < 9 F 9.$.V 0 : 5 e C :.$.D 0 - < y F 9.&.C 0 - < y L t.%.D 0 - 8 y I 7.$.C 0 - < t J 5.+.m 0 - ",
"3 t S o.:.J 0 - < e C %.$.D 0 - < e D >.o.M 0 : < e V $. .V 0 - < e F 9.%.n 0 - < y G t.%.N 8 - 9 y J &.$.V 0 - < t S 5.+.S 0 - ",
"3 t n o.>.J 9 - < y F 7.$.N 0 - < y C $.*.Q 0 - 2 q V %.$.C w : < e D :._ z 5 - 3 y F &.$.N 8 : 3 y F %.$.D 0 - 3 y C o.o.J w : ",
"< 9 v o.+.S 0 - < y L 9.$.N 0 : 3 e b  .} n 0 - < e D 7.9.G w : < e G ,._ W 6 - 3 y G &.$.N 0 : < y F %.$.F 0 : 3 y n ....S 0 : ",
"< 9 l o.+.m 0 - < 0 D %...N 0 - 3 y C $.' b 0 : 3 y D 9.9.J 0 - < y I t.' M 6 - 8 y I t.$.D 0 - < y C $.$.F 0 - 3 t C 5.5.J 9 - ",
"3 e C %.+.C 0 - < 0 D $.' N 0 - 3 y F 7.%.C 0 : 3 y D 8.9.F 0 - < y I 9.o.V 0 : 8 u Y t.&.D 0 - < y C $.$.D 0 - < e S 9.>.C 0 - ",
"3 y L 9.%.C 0 - < e F %.' N 0 - 3 y J 9.7.G 0 : < y F t.t.J 0 - < y L t.%.V 0 : 8 y I y.e.D 0 - < y D 7.7.D 0 - < y J 9.o.n 5 - ",
"< 3 h m c f < $ > 3 g c l u > $ < 9 h m v g < $ % 3 g C C h < $ < 3 j B m u < - < 9 h B C g < $ % 3 g b b d , - < 3 j b c u : $ ",
"% < l E Y h : + $ < k I I g $ o $ 3 c E Y k : o # < l Y U j : o $ 3 c / T j : O $ < l E E l : o @ < k T T k : O $ < l E Y k : o ",
"9 y F 7.=.V 8 - 3 y C &.%.V 8 - 8 y U t.%.C 0 - < y C %.$.C 0 : 3 y G ,.>.S 0 : 3 y I t.t.L 0 - < e S 9.9.F 0 : < e F 7.$.D 0 : ",
"8 y F &.*.V 8 - 3 y I 7.%.C 0 - 3 y G &.o.C 0 - < e D &.9.F 0 - 3 t b o.+.C 0 : 3 y J 8.t.U 0 : < e C ,.:.C 0 : 2 e L 7.' V 0 - ",
"< e F 7.$.N 0 - 3 y L 7.%.V 0 - < e V ' ' N 0 : < y F 9.t.G 0 : < e b ....C 0 : 3 y F 7.%.F 0 : < w C ;.-.V 0 - < y G ;.} N 0 - ",
"< e F 7.&.D 0 - < y J 8.%.F 0 - 3 y C ' ( V 0 : 8 y I t.9.J 0 : < e b ..' C 0 - < y L 7.' N 0 : < s C o.' C w : < y D >.$.N 0 - ",
"< e D 7.&.V 0 - < e C 7.$.C 0 : 3 y F $.' V 0 : 8 y I t.5.F 0 : < e C ..o.C 0 - < y U 8.$.C 0 : 3 e C o.' V w : 3 e C 7.%.N 0 - ",
"3 e D 7.&.D 0 - < e D %...N 0 : 3 y F 5.' N 0 - 3 y F 7.7.D 0 : 3 t C ....S 0 : 3 y U 8.%.C 0 : 3 y C o.o.S w ; 3 e C 7.%.N 0 - ",
"8 y D 7.&.G 0 : < y F %...C 0 - < e C 7.%.N 8 - 3 y J 5.&.C w : < e C ....S 0 : 9 y L t.8.L 0 : 3 y C o.+.C 0 ; < y V $.$.V 0 - ",
"3 y F 7.%.F 0 : 3 y D  .o.G 0 - < 9 C 9.8.C 0 - 3 y F 7.7.F 0 : < e V o.o.C 0 : 3 y J t.t.L 0 - < e C :.o.C 6 - < e V $.$.V 0 - ",
"3 y F %.' D 0 : 3 y C _ } F 0 - < e F 5.5.F w - < e C %...C 0 - < e C o.' m 0 : < y F 7.%.F 0 - < e C >.o.C 0 - < e C ..' N 0 - ",
"# * u B B u - o # < i C C u : o @ < i F B g - o @ : u B m u $ X @ : u b m u : o @ % f H v u $ X @ < k Y H u - X @ & u H b y - o ",
"% 8 v $.$.v < @ % 9 V :.$.v < @ % 9 V $.' b < @ : 8 v +...l < O % 9 n +...n < @ % 9 b ' ^ l < @ % 9 S 9.%.v < @ % 3 v %. .l < @ ",
"< 0 D &.7.F 0 : 3 y F &.%.F 0 : < y F &.=.D 0 ; 2 y J 5.%.C 0 - 3 y G 5.o.m 0 : 3 t S o.} b 0 : 3 y F 9.%.D 0 : < e F 9.%.C 0 : ",
"< 9 D &.&.F 0 - 3 y L 7.7.F 0 - < y D &.$.V 0 - 2 e F 5.%.S 0 : 3 t C o.' v 0 : 3 y J +.' b 0 : 3 e N %.5.F 0 : < y F 5.%.C 0 - ",
"< 0 N %.$.N 0 - 3 y L 7.7.F 0 - < y L 7.$.N 0 : < y F :.o.C 0 : 3 e n ' ' v 4 - 3 t C  .} b 0 - < e N $.>.C 0 : < y F o.o.S 0 - ",
"2 0 V $.' N 0 : 3 y F &.%.F 0 : 8 y I t.$.N 0 - 3 y G :. .N 0 - < e b o...n 4 - < e C o.' m 0 - < 9 b o.=.! 0 : 3 y C ' ..C 0 - ",
"< e C ' =.D 0 : 8 y D 7.%.D 0 - < y L &.$.N 0 - 3 y I >.o.C 0 : < e C +.+.m 4 - < e S +...b 0 : 3 e N %.%.C 0 : 9 y J $.*.V 0 - ",
"8 y F $.$.C 0 : 3 y D 7.$.N 8 $ < e D $.' V 0 - 3 y G 5.%.F 9 - < t J 9.+.m 3 - , e S o.' b 0 - < e G 9.%.C 0 : 3 y J ,.<.! 0 - ",
"3 y D $.' N 0 : < e N $.$.D 0 - < e V ;.%.F 0 - 3 y F 5.5.F 0 - < t J 9.5.m 3 - < t J o.*.x 6 - < y F 7.$.N 0 - 3 t C ,.;.! p ; ",
"3 y N ' ' V 0 : < e N $.$.D 0 - 3 y ~ &.&.F 0 - < e C 5.%.S 0 - < t J 9.+.b 4 - 3 y J +._ Q 0 - < y F 7.%.C 0 - < e C :.%.V p ; ",
"3 y D &.' N 8 $ < e D &.$.V 0 - 3 y G &.$.D 0 : < t S 5.o.C 0 - < t S +...b 0 : 3 y S +.o.C 0 - < y F 9.%.C 0 - < e V :.:.! 7 ; "
};
