/* XPM */
static char *_9417745e3bf47819fba4ab8c8e9293cRi8jUbQ3ilWiMwU4[] = {
/* columns rows colors chars-per-pixel */
"64 64 208 2 ",
"   c #2C1D15",
".  c #301F17",
"X  c #1E2E12",
"o  c #2E2116",
"O  c #292818",
"+  c #34231A",
"@  c #322519",
"#  c #39261C",
"$  c #3D291E",
"%  c #273818",
"&  c #34321C",
"*  c #3B341F",
"=  c #353E1E",
"-  c #2E2621",
";  c #3D2C22",
":  c #3B3623",
">  c #412B1F",
",  c #432E21",
"<  c #453223",
"1  c #4B3325",
"2  c #403822",
"3  c #493925",
"4  c #47342A",
"5  c #4E3729",
"6  c #4E392A",
"7  c #503526",
"8  c #523728",
"9  c #543A2A",
"0  c #5A3D2D",
"q  c #563E30",
"w  c #603F2F",
"e  c #2C431C",
"r  c #2F481E",
"t  c #35411F",
"y  c #314D1F",
"u  c #33511F",
"i  c #3A651D",
"p  c #384C24",
"a  c #365421",
"s  c #3B5B24",
"d  c #3E5528",
"f  c #3E6326",
"g  c #3F6327",
"h  c #4F4028",
"j  c #54412B",
"k  c #5D412F",
"l  c #52492D",
"z  c #5C492F",
"x  c #42582A",
"c  c #445B2E",
"v  c #4F433D",
"b  c #534035",
"n  c #5E4230",
"m  c #554C34",
"M  c #5F4A31",
"N  c #485D31",
"B  c #5D5433",
"V  c #5E5932",
"C  c #5A5937",
"Z  c #61412F",
"A  c #634432",
"S  c #694733",
"D  c #654934",
"F  c #6B4B36",
"G  c #664B3A",
"H  c #6E4E39",
"J  c #714D37",
"K  c #714E39",
"L  c #675437",
"P  c #615B34",
"I  c #75523B",
"U  c #7A553E",
"Y  c #7D583F",
"T  c #416426",
"R  c #416C25",
"E  c #42642A",
"W  c #4C642B",
"Q  c #446A2B",
"!  c #4A6B2E",
"~  c #566E2E",
"^  c #447424",
"/  c #467329",
"(  c #4B742E",
")  c #4B7C2B",
"_  c #54752D",
"`  c #4B6433",
"'  c #4C6632",
"]  c #516D35",
"[  c #546B39",
"{  c #5D6938",
"}  c #4C7431",
"|  c #4E7A31",
" . c #547432",
".. c #517D34",
"X. c #57763A",
"o. c #5C7C3D",
"O. c #646A37",
"+. c #66743A",
"@. c #697B3D",
"#. c #494545",
"$. c #594D49",
"%. c #5D534D",
"&. c #5B5758",
"*. c #644D41",
"=. c #625346",
"-. c #745544",
";. c #7C5741",
":. c #625A58",
">. c #745F52",
",. c #5B7640",
"<. c #6A7845",
"1. c #717847",
"2. c #756257",
"3. c #74635B",
"4. c #6A6566",
"5. c #786B67",
"6. c #726C6C",
"7. c #7D716D",
"8. c #706E71",
"9. c #777274",
"0. c #80583F",
"q. c #845C42",
"w. c #885F44",
"e. c #825E48",
"r. c #876045",
"t. c #8A6146",
"y. c #866048",
"u. c #8E6448",
"i. c #91664A",
"p. c #95694C",
"a. c #9A6C4E",
"s. c #8A6B58",
"d. c #976D51",
"f. c #9D6F50",
"g. c #9E7051",
"h. c #98725A",
"j. c #A47453",
"k. c #A87755",
"l. c #AB7957",
"z. c #A2765A",
"x. c #AE7B59",
"c. c #B27E5B",
"v. c #8D7466",
"b. c #817C7C",
"n. c #4E812C",
"m. c #53892E",
"M. c #558436",
"N. c #588536",
"B. c #568B33",
"V. c #598D36",
"C. c #568439",
"Z. c #59853A",
"A. c #5B8C3B",
"S. c #5A9235",
"D. c #5E9937",
"F. c #5D933A",
"G. c #5F9A38",
"H. c #658C3C",
"J. c #61943C",
"K. c #629B3C",
"L. c #65A13E",
"P. c #638343",
"I. c #6A8D41",
"U. c #6C8947",
"Y. c #718B49",
"T. c #639541",
"R. c #659B42",
"E. c #6D9846",
"W. c #73924D",
"Q. c #759D4D",
"!. c #759753",
"~. c #66A240",
"^. c #6AA244",
"/. c #6EA648",
"(. c #6FAA49",
"). c #70A447",
"_. c #75A34B",
"`. c #78A24E",
"'. c #72AB4C",
"]. c #73B34B",
"[. c #7CA452",
"{. c #76AF51",
"}. c #7DAD53",
"|. c #7BB754",
" X c #B6815D",
".X c #BA845F",
"XX c #86AB59",
"oX c #84B25A",
"OX c #8BB55E",
"+X c #84B95A",
"@X c #8C817E",
"#X c #BD8661",
"$X c #BF8862",
"%X c #8CAC60",
"&X c #8EB461",
"*X c #8FBA61",
"=X c #91BC64",
"-X c #93BD69",
";X c #C38B64",
":X c #C98F67",
">X c #CA9067",
",X c #CC9168",
"<X c #94C166",
"1X c #7F7E82",
"2X c #807F84",
"3X c #8A8587",
"4X c #978C88",
"5X c #928F93",
/* pixels */
"X % r y a s E g R g i R ..M.A.A.F.T.T.T.J.V.S.F.F.K.R.K.S.S.K.R.'.{.'./.^.K.J.F.F.F.F.N.B.n.^ ) N.N.Z.Z.C...| } ! g s a y r % X ",
"% e y a a s E T R g i R ..M.A.A.T.T.T.T.T.S.S.F.F.K.R.K.S.F.R.R.'.{.'./.^.K.K.F.F.F.F.V.B.n.^ ) A.N.A.Z.C.....} ! g s a u y e % ",
"% e y a s g E E E R i R M.N.A.F.T.T.R.T.T.F.F.F.F.K.^.K.S.F.~.~.'.{.'.(.^.K.K.F.F.F.F.V.B.n.^ ) A.N.A.Z.Z.C...} } E g a a a r % ",
"% r a a s E E E Q R i ^ N.N.A.F.T.R.R.R.T.F.F.F.J.J.T.J.S.F.^.^.'.{.'.'./.R.R.K.F.K.J.V.B.n.^ ) A.A.A.A.Z.Z.....} E g s a p r % ",
"p d c s E g g Q ( ( ( | M.N.F.T.J.F.E.[.[.Q.Q.`._.P j X.K.K.K.K.K.K.}.OXOXoX}.^.^.F.S.F.F.F.N.N.A.A.A.A.Z...o.o.X.] ' ` c &   O ",
"p x c E Q g g / } | | ..N.N.F.T.J.F.E.[.[.Q.`.[.[.P 9 { L.L.K.K.D.D.oX=X*XOXoX/.^.F.S.F.K.F.A.V.A.A.A.A.Z...o.P.o. .] ' N &   O ",
"d c ` E Q g R ( | | | M.N.N.J.T.J.F.E.[.[.`.`.[.[.P 9 { ~.L.K.K.G.G.oX=X*XOXoX(./.G.S.F.K.F.S.A.S.A.F.A.Z.M.Z.P.o.X.] ' ` &   O ",
"x c ` E Q T T ( | ........M.J.T.H.A.E.[.[.`.`.[.[.P 9 { ~.K.J.J.G.G.oX=X*X*XoX'./.A.V.J.K.J.F.A.Z.Z.A.A.M. .o.P.o.X.] ] ` &   O ",
"d N ' [ [ 2 * x R / ) ! 3 l W.Q.V 9 1.*XXXK.K.^.^.V 9 +.(.I.z B ^.'.|.+X+X=X*X*XXXB l _ m.B.V. .h l Y.W.C < { W.P.! Q E E &   & ",
"x ` [ ,.[ < $ s R / ) W 1 9 W.[.B 1 1.-XoXK.K.L.L.V 9 +.].I.0 M _.].|.|.+X=X=X<XOXM 9 _ m.m.V._ 5 j Y.W.m , { !.P.Q E E g &   & ",
"c ` [ ,.X.< $ s R / ) ! 1 9 W.[.B 7 1.-XoXK.K.L.L.V 0 +.].I.0 M _.].|.+X+X=X=X<X&XM 9 _ m.B.S. .5 j W.Q.m , { !.P./ Q E g &   & ",
"c ` [ [ [ < > x T Q ( W 1 9 Y.W.C 9 1.%X[.H.J.K.L.V 0 +.).H.0 M '.].}.}.+X<X*X&XXXD 9 ~ n.m.N.~ 8 j U.Y.m 4 C Y.<.Q E E E & . & ",
"p s d ; , 5 8 3 < < 3 9 A A j j %.:.=.n z z B E.'.P 0 k M M 0 z K.L.O.D @.].I.D D K K M j j j k S S j 9 $.&.v 3 3 < : Q Q * o o ",
"= s p # $ 8 0 1 , , < 8 S S 7 7 %.4.%.9 9 9 z ^.'.P 0 0 0 0 0 z J.L.V 0 +.].H.0 0 K I A 9 9 7 0 F S 7 1 $.&.v , , $ : ! Q * +   ",
"t g d # $ 8 0 1 , < 1 8 S S 8 7 %.4.%.9 9 9 z ).].P 0 0 0 0 0 D K.L.P 0 @.].I.0 0 K U A 9 9 8 0 F S 7 1 $.&.v , , > 2 ! ! : +   ",
"= s p ; ; 8 0 5 1 1 < 8 S S 0 9 :.4.=.0 Z A L E.).P A A Z w w D H.K.P 0 +.).P.n n I U S 0 0 8 0 H S 9 8 $.&.v 1 1 1 3 W E : + + ",
"@ # : #.#.0 0 D K k 1 7 S F Y q.-.I ;.t.p.l.j.L D r.p.t.U U U U D D k 0 M D =.4.4.;.U q.u.K 8 0 H H U U H D S H I ;.I 3 * 5 8 < ",
"+ + ; #.#.q 0 S I A 1 8 S F q.t.U K q.i.f..Xc.S 0 t.j.i.q.q.q.q.A w Z Z 0 0 *.8.6.-.U u.p.I 9 0 H H q.q.K A H I U t.U , # 8 0 5 ",
"+ + ; #.#.q 0 H I A 1 8 S F q.t.U K q.i.f..Xc.S 0 u.j.i.q.q.q.q.S w w w k 0 *.8.6.-.U u.p.I 9 0 H H q.q.K S H I U t.U , $ 8 0 3 ",
"+ + ; #.#.q 0 H I A 1 9 K I q.t.U K q.p.g..Xc.S Z u.j.i.q.q.q.q.S Z A Z Z Z *.6.5.-.U u.p.I 9 Z I I q.q.H A F I U t.U < $ 9 0 3 ",
", < < ; , 9 0 n A A A I a.a.I I A 9 I p.a.f.a.;.U p.j.q.A S S S A A U q.0.U I D D U U U U I K q.j.f.I H 0 5 A I I I H 9 5 0 k < ",
"< 1 < $ > 9 0 k A A S U j.j.I K k 9 I p.p.a.a.q.0.p.j.q.A A A A A A U q.q.q.U k Z U U U U I I q.x.j.I S 9 1 A U I I F 0 8 0 k < ",
"< 1 < $ > 9 0 k A A S U j.j.I K n 9 I p.a.a.a.q.0.p.j.q.A A A A A A U q.q.q.U k Z U U U U I I q.x.j.I S 9 1 A U I I H 0 8 0 n < ",
"1 5 5 , < 9 0 k A S S U j.g.U I A 9 I p.a.a.a.e.e.a.j.q.Z S F F H F U q.w.u.q.F F U U U U U I q.l.j.U K 0 1 A I I I H b 9 k n 1 ",
"0 H I I I k 0 H I H S K t.u.j.k.q.K U U ;.q.e.@X3Xs.w.q.q.p.#X#X#X#Xp.q.j.;X#X.Xc.q.U u.p.w.I U i.i.a.f.I A S S A n n &.&.b 5 < ",
"k I I ;.;.n 0 H U I S H w.t.k.x.w.I U U U U e.3X5Xs.q.q.q.a.>X,X>X:Xa.q.k.,X:X;X#Xw.U i.a.w.I U u.u.j.k.U S S A n 0 n &.&.b 1 < ",
"k I U ;.;.n k H U I S K w.t.k.x.w.I U U U U e.3X5Xs.q.q.q.a.>X,X>X:Xa.q.k.>X>X;X#Xw.U i.a.w.I U u.u.j.k.U S S A n 0 n &.&.b 1 < ",
"k I I ;.;.n k H U I S K w.t.j.k.q.I U q.q.q.y.4X4Xs.q.q.q.a.;X;X;X;Xp.q.k.>X:X;X#Xw.U i.a.w.I U u.u.g.g.U S S S S A D :.:.b 5 < ",
"3 A D S H k k A S K Y q.w.t.U U I I p. X X.X.Xz.z.j.j.p.q.w.u.u.k.l.U S w.l.l.k.j.q.U q.;.q.i.u.u.t.U K F S U i.u.t.q.H G A k 8 ",
"1 n A D S k k A A K q.q.w.r.I K I I a.#X#X;X$Xk.j.k.k.p.q.q.q.w.j.j.I A q.k.k.j.g.q.U U U q.p.i.u.t.K F S S ;.p.i.u.t.H D A n 8 ",
"3 n A D S k k A A K q.q.w.r.I K I I a.#X#X;X;Xk.j.k.k.p.q.q.q.w.j.k.I Z q.k.k.j.g.q.U U U q.p.i.u.t.I F S S q.a.i.u.t.H D A n 8 ",
"3 n A D S k k A A H U ;.w.w.I I I I p. X X$X$Xk.j.k.k.p.q.w.q.w.g.j.U S w.k.k.j.g.q.U U U q.u.u.u.t.I H S S U i.u.u.r.H D A n 8 ",
"0 n n 0 0 0 k A A k 8 0 K I q.u.;.I U q.u.j.j.t.w.a.k.p.q.;.S S q.t.p.f.j.k.g.w.q.q.U U U H k S I I q.q.I S S S F I I k 9 k n 8 ",
"0 n n 9 0 0 k A A 0 1 9 F K t.i.;.I U U q.a.f.w.q.a.k.p.q.U A A q.q.a.k.k.k.f.q.q.;.U U U S 9 0 K K w.t.I S S A S I H 0 8 k n 8 ",
"0 n n 9 0 0 k n A 0 1 9 F K t.i.;.I U U q.f.f.q.q.a.k.a.q.U A A q.q.a.k.k.k.f.q.q.;.U U U S 9 Z K K w.t.I D S A S I H 0 8 k n 8 ",
"0 k n 9 0 A A S S k 5 9 F K w.u.Y U U U q.a.f.q.q.p.f.i.q.U A S q.q.a.k.j.k.f.q.q.w.q.q.q.J 9 Z I I w.w.I S S A S I H 0 8 0 0 5 ",
"1 5 8 8 0 ;.t.u.i.U S H q.w.I I q.i.U 0 S q.q.q.q.K S S S F q.q.q.q.w.w.w.w.w.q.w. X.X X Xp.K U t.w.I H U ;.S 1 8 n k 0 8 , $ # ",
"< 3 5 8 k q.u.i.p.q.S K w.r.I K w.p.U 0 S U ;.q.q.F A A A F q.w.q.q.q.q.q.q.q.q.w..X;X#X#Xa.I U u.t.K F U q.S < 5 k 0 0 8 , + + ",
"< 1 5 8 k q.u.i.p.;.S K w.w.I K w.p.U 0 S U ;.q.q.F A A A S q.q.q.q.q.q.q.q.q.q.w..X;X#X.Xa.I U u.t.K S U q.S < 5 0 0 9 8 , + + ",
"3 5 8 8 0 q.u.i.p.;.G I w.w.I K w.p.U 0 S q.q.w.w.F Z S H I q.q.w.q.t.u.u.u.w.q.w. X$X#X.Xd.-.;.u.t.K S U q.S < 8 A k 0 0 , # + ",
"D H A , 1 H I U Y 2.6.3.H K H K q.p.w.I w. X.X.X.Xi.U f.;X Xj.a.F S k.;X;X;Xj.S S a.j.g.a.v.b.5.I I H S U q.H k S w.q.Y I 0 < 8 ",
"S I A $ , S I I U 2.9.4.S H H K q.i.w.U u.#X;X;X;Xp.q.k.,X;Xk.g.S S x.,X>X>Xk.Z S p.a.a.p.v.3X7.K H H S U q.I A H t.t.q.Y k 3 9 ",
"S I A $ , S I I U 2.9.4.S H H K q.i.w.I u.#X;X;X;Xp.q.k.,X;Xk.a.S S x.,X:X:Xk.k S p.a.a.p.v.3X7.K K F S U ;.K A H t.r.q.Y 0 < 9 ",
"D H A $ , A F I U >.6.3.S F J J q.i.w.I u..X#X$X$Xa.w.k.;X#Xk.g.H G x.>X;X;Xk.Z S u.i.p.p.v.b.5.K H F F U ;.K n S t.w.q.U k 5 8 ",
"0 n k 5 7 < 1 S U I G D 8 0 q.t.U U U I q.f.g.j.j.c.$Xk.w.i.j.z.7.6.h.k.k.k.a.U U S A w.p.y.-.H 9 0 U q.I S S A A I H F D F S 0 ",
"8 0 0 8 8 , , D U H S n 5 9 q.u.U K I I 0.p.a.a.a. X;Xj.q.w.j.z.9.9.h.j.j.j.p.q.U A 0 q.p.q.K S 8 9 ;.w.K S A n A H F D A F H 0 ",
"8 0 0 7 8 , , D I H S n 5 9 q.t.U K I I q.p.a.a.a. X;Xj.q.t.j.h.9.9.h.j.j.j.p.;.U Z 0 q.p.q.K S 7 9 ;.q.K S A n A H F D A F H 0 ",
"8 0 0 5 8 , , S I K S S 9 k q.t.U K I I 0.p.p.a.a. X;Xk.w.u.j.h.7.9.h.j.g.g.p.U U Z 0 q.p.w.U K 0 n ;.q.H A A Z A H S D A S F 0 ",
", < 5 5 8 8 9 k A U i.p.p.i.I K A 9 K u.t.U q.p.a.g.j.l..Xl.w.w.e.e.w.q.q.q.q.U U I I U U i.k.j.g.p.I F 0 1 n I S n 0 A A n 0 0 ",
"; , 1 5 8 9 0 0 k U a.a.g.a.K F 0 7 K i.u.U U p.a.a.a.l.;Xx.q.q.q.q.q.;.U U U U U U U I I i.x.l.k.g.K S 9 < k I F 0 0 A A k 0 0 ",
"; < 1 5 8 9 9 0 0 U p.a.f.a.K F 0 7 K i.t.U U i.a.a.a.l.;Xx.q.;.;.;.;.U U U U U U U I I K i.x.l.k.f.K S 9 < k I S 0 9 A n k 9 9 ",
", < 3 3 5 8 0 k A U p.p.a.p.K F A 0 I u.t.I U i.p.p.p.k.#Xl.q.0.U U U U q.q.q.U I I I U U i.l.k.k.a.H S 9 5 A I S 0 9 n n 0 8 8 ",
"< A 0 $ $ 7 0 I t.q.U ;.q.q.H S U w.;.I I I I -.-.;.U u.g.f.a.p.q.U S k t. Xa.k k K I a.l.a.u.u.t.w.F S H I S k 0 9 8 6 6 1 , < ",
"< A 0 # $ 5 9 U y.q.I U ;.;.H S Y t.;.K K I I -.-.U U w.a.a.a.a.q.U S 0 u.#Xa.0 0 K I g.x.f.t.w.w.q.S S I U S 0 0 9 8 6 4 < , , ",
"< A 0 + # 5 9 U t.q.I U Y ;.S S Y t.;.K K I I -.-.I U q.a.a.a.a.;.U S 9 t.#Xa.0 0 K I f.x.a.r.w.q.;.S A K I S 0 0 8 5 6 4 < , , ",
"< k 9 # $ 5 9 I q.;.I U Y Y S S U r.;.H I U U -.-.I I q.p.p.i.i.q.q.F A t.c.p.Z k K I p.k.p.w.w.q.;.S A K I D 0 0 0 8 6 4 , $ $ ",
", , 1 8 0 8 8 0 k S I I U Y U ;.I K S 9 H k.j.U I S 0 S U I A S k.c.x.x.p.U q.t.w.I K I I Y w.q.q.;.U I S A 8 , 9 I H 5 < # o o ",
", $ < 0 k 8 8 9 0 A I I U U ;.q.I S A 5 F l.k.U I A 9 S U H 9 S l..X X Xp.I U i.u.I K H F U w.q.q.;.U U D k 5 $ 8 U I 5 < +     ",
"; $ , 9 0 5 7 8 9 A I I U U Y ;.K S n 5 S l.k.U K A 9 S I H 9 A l. X X Xp.K U u.u.I H H F U q.q.;.;.U I D k 5 $ 8 U K 5 , +     ",
"$ # , 8 0 5 5 8 9 A I I I I U ;.K S S 0 I k.j.U K Z 9 S -.H 9 Z k.c.c.c.i.K U u.t.I J H F I q.;.U I U I S 0 8 < 9 I H 5 , +     ",
"+ + $ , 1 0 k A D A k 0 1 8 I ;.H S q.a.a.u.u.t.t.I F 3.b.5.K I i.p.p.p.w.K K I I q.q.q.q.I F S 7 9 I I S 0 S U I A n 9 5 ; + - ",
"+ @ $ , < 0 n A D A 0 9 , 5 I ;.H S q.k.f.r.t.t.u.U K 3.2X7.I I u.u.u.u.q.K K H K q.t.w.w.I S n 1 5 K I A 0 F ;.I n k 0 5 , + - ",
"o + # $ < 0 n A D M 0 9 , 1 I U H S q.j.a.w.w.r.t.U H 3.1X7.I I t.u.u.u.q.K K H K q.w.q.q.I S n 1 5 H I A 0 S ;.I n 0 8 5 $ + O ",
"  o # $ , 9 k M S n 0 8 , 1 K U S S q.j.a.w.w.r.t.I H 3.1X7.K I t.u.u.u.;.H H H H q.q.q.q.I S k 1 5 H I A 9 S Y I k 0 8 3 $ o O "
};
