/* XPM */
static char *f49d6717de2d4a948c88062e9cf375d5I1ViD4ETqEiq3pXr[] = {
/* columns rows colors chars-per-pixel */
"64 64 206 2 ",
"   c #1E370E",
".  c #173B0C",
"X  c #1C3A0D",
"o  c #0A3213",
"O  c #0F3618",
"+  c #163715",
"@  c #1D3410",
"#  c #1D3C13",
"$  c #1B331D",
"%  c #153B1A",
"&  c #1B3C1A",
"*  c #213514",
"=  c #233D14",
"-  c #233D1B",
";  c #293E1B",
":  c #1F3E21",
">  c #223621",
",  c #233F22",
"<  c #283E24",
"1  c #1E440E",
"2  c #124317",
"3  c #1F4312",
"4  c #17431D",
"5  c #1D421C",
"6  c #1F491C",
"7  c #22420F",
"8  c #244315",
"9  c #294417",
"0  c #264C17",
"q  c #2A4A16",
"w  c #25441B",
"e  c #2A441C",
"r  c #244A1C",
"t  c #2C4B1C",
"y  c #30461E",
"u  c #324D1D",
"i  c #2C511D",
"p  c #32511D",
"a  c #38501F",
"s  c #35581F",
"d  c #1D4321",
"f  c #1D4C23",
"g  c #1F4B29",
"h  c #1E5324",
"j  c #1F5328",
"k  c #234423",
"l  c #2B4524",
"z  c #244B23",
"x  c #2D4C23",
"c  c #274328",
"v  c #2C452A",
"b  c #244C2A",
"n  c #2C4C2A",
"m  c #314723",
"M  c #324D24",
"N  c #3B4E26",
"B  c #31452A",
"V  c #334D2B",
"C  c #3B4D2B",
"Z  c #255325",
"A  c #2D5325",
"S  c #2C5A25",
"D  c #25542B",
"F  c #2C542B",
"G  c #25592E",
"H  c #2C5A2C",
"J  c #345224",
"K  c #3A5525",
"L  c #325926",
"P  c #3B5A25",
"I  c #34542B",
"U  c #3A552C",
"Y  c #345A2C",
"T  c #3B5B2C",
"R  c #2B4A32",
"E  c #344634",
"W  c #344C33",
"Q  c #3A4D30",
"!  c #354D3A",
"~  c #2C5532",
"^  c #2E5B33",
"/  c #345432",
"(  c #3A5734",
")  c #3B5533",
"_  c #355B33",
"`  c #3E5A32",
"'  c #3F5E30",
"]  c #3F5934",
"[  c #3C5C33",
"{  c #325439",
"}  c #3C5539",
"|  c #365C39",
" . c #3C5C3A",
".. c #316024",
"X. c #36632C",
"o. c #3B622D",
"O. c #3B692E",
"+. c #2F6133",
"@. c #356233",
"#. c #3E6031",
"$. c #3C6034",
"%. c #3C6334",
"&. c #3C6A35",
"*. c #35623A",
"=. c #3D633B",
"-. c #36693B",
";. c #3D6A3C",
":. c #415D27",
">. c #405E29",
",. c #415B2D",
"<. c #405630",
"1. c #405734",
"2. c #415534",
"3. c #425E32",
"4. c #465C33",
"5. c #425937",
"6. c #415A36",
"7. c #445B36",
"8. c #415F37",
"9. c #425D34",
"0. c #435439",
"q. c #43553C",
"w. c #435D38",
"e. c #475C39",
"r. c #435D3B",
"t. c #495E3C",
"y. c #406029",
"u. c #406432",
"i. c #446134",
"p. c #476435",
"a. c #426335",
"s. c #486036",
"d. c #486435",
"f. c #476837",
"g. c #436B36",
"h. c #4A6937",
"j. c #476439",
"k. c #46643C",
"l. c #43643B",
"z. c #49633A",
"x. c #4D6338",
"c. c #4B643D",
"v. c #436A3C",
"b. c #4A6A3C",
"n. c #526B3F",
"m. c #457137",
"M. c #44723F",
"N. c #4C723E",
"B. c #3E5D41",
"V. c #3E6442",
"C. c #3E6B42",
"Z. c #425341",
"A. c #4C5746",
"S. c #455D42",
"D. c #4A5D46",
"F. c #4E5F48",
"G. c #515C47",
"H. c #446443",
"J. c #4F6240",
"K. c #4C6541",
"L. c #4A6442",
"P. c #456B43",
"I. c #4A6C43",
"U. c #466549",
"Y. c #4A6549",
"T. c #466A49",
"R. c #4B6D4B",
"E. c #516642",
"W. c #526D40",
"Q. c #516F46",
"!. c #516B45",
"~. c #52674D",
"^. c #526C4B",
"/. c #596E4E",
"(. c #457243",
"). c #4C7447",
"_. c #4A7245",
"`. c #4B7842",
"'. c #46764A",
"]. c #4D724B",
"[. c #477C4A",
"{. c #4D7A4B",
"}. c #527444",
"|. c #587545",
" X c #52744C",
".X c #5B754E",
"XX c #53794D",
"oX c #5A7A4D",
"OX c #537D44",
"+X c #4E6D56",
"@X c #546D52",
"#X c #536F59",
"$X c #4E7250",
"%X c #527452",
"&X c #5A7553",
"*X c #567A51",
"=X c #5C7B53",
"-X c #557459",
";X c #5A7659",
":X c #5D795A",
">X c #627D55",
",X c #5B844B",
"<X c #5C8456",
"1X c #578658",
"2X c #5F835C",
"3X c #62865D",
/* pixels */
"T M l 5.J.t.e.0.2.C V x K #.I.K.K.Q.7.J J 8.o.P w.$.Y @.H x m K ] I A L r r r 0 t I U x.` l x 9 9 x J 1 9 M C e w = = = = J s.r.",
"U K ) 5.1.z.5.I I Y t 8 5 5 8 x I a.z.U J J t T m.P e e e w J U ` / x I L J r 9 p t J P K J x x x V A . 9 u P q =   = = w u I k.",
"V J M M e l ( ' Y r w w 6 w = w x I T T K r = = r w q J V ; # x J U ] V A J P y.>.K J I M m l # w I L t J K T U m e e y 9 t J U ",
"I T b.i.p.B l u.u.U M U l n l w e u J p P K y - * * 8 q x l e = 8 t K A r t J t t q u e x x l w # w t p t J ,.W.c.U U J U V V I ",
"U x $.).Q.!.] A J T U 4.U v n 8 8 x J q q u M ; e = e = = J 3.<.U y = r J J :.p u P J e e e # # l m w u e = = t J A T T l.c.f.3.",
"] x z Y a.K t 8 r t J T T J x x t v J . = y P a 8     # = t U c.8.J r q u a p q = t 3.b.w.m w x x m M K M 8 e M V K T Y ) J T [ ",
"] [ F _ @.J P T >.P J J x x e 8 w I I r u a P K e - e q 9 t M ` I t r = 8 M y x r u U f.' ) ) i.T U <.T t e w t M x I Y U K $.8.",
"Y Y F A r t J u i t u t x I l w # 8 x p t J ,.n.c.U M M J v m I K U M t l I t w w e m U [ 0./..Xc.] Y A K K M V I A r A Y x Y P ",
"_ F z r u J :.J t P J ; ; e & # w l w t e 8 = t U J T T u.c.p.T I l & V ] U T M t e w M j.L.Q.j.J x ] T T r.$.Y [ Y A M Y a.[ A ",
"/ T t r u u s q 8 u ,.s.5.V - t t M e J J w = m M K U U ` U T ' 8.V k l [ ] s.l.U o.] 4.] ) a.E.#.L T J T m.P J Y T #.g.H.%.$.[ ",
" .J t 8 8 M u M r q U b.a.) V T K J <.T x w w t M M K T U J #.5.` ( n ) r.<.T x P p.b.c.w./ r.R.%.P A w 9 S t Y g.j.i.a.a.3.p.I.",
"R.Y M e - V t w w r M U T ( ~..XK.w.[ A U U M x I A r A Y x Y T Y Y n W w.U I x U b.b.l.c.U $.Y F $.T J t L a.I.b.#.&.' u.g.%.=.",
"I.a.- v ] U T x q 9 w v w.c.!.K.U M ( U K 5.a.T [ Y A x I ] T A F H k v [ [ I I ,.f.T #.8.S.H./ I l.g.U T a.N.,X Xl.a.T a.=.v.L.",
"a.l.V < ] T i.j.U P U T 5.) j.E.8.L T U T g.o.A K T @.g.=.g.$.Y / I z k z b z 5 x 3.3.i.k. .r./ n _ %.).' [ v.#.a.a._.$.$.$.v.).",
"_.I./ W r.5.4.Y Y u.b.n.j.) } ^.g.Y L w w ..A I g.j.3.a.g.' u.I.H.n c l w + z 5 n @.$.c.K.8.[ [ b F O.@.H I g.Y ] f.v.l.P.$.@.Y ",
"_.R.W W l.` I z J p.b.l.c.U ] $.F [ T J r i T p.I.' g.a.u.g.%.v.%X_ / l k k A S f.[ Y a.8.l.#.( V A X.Y x x K Y l.v.g.Y  .=.Y =.",
"%.I.n v ) ] I I T b.u.#.a.r.H._ V  .l.L J 3.b.,XoXi.%.T u.;.v.l.I.l. .I A I _ X.a.I n [ (  .[ k l & z Y I F K P o.g.I.v.v._.l.=.",
"_  .b k n I x r x 3.3.' j. .r.( n  .%._.a.[ v.g.f.a.I.a.g.] v. Xk.g.a._ | | G S $.n k _ ~ *.b d Z 6 z I Y @.@.%.g.I.%X]. XXXP.*.",
"| l./ c k + k 4 k T %.l.Q.w.[ [ n A X.&._ F g._ Y p.v.l.k.$.%.| g.I.r.=.V.*.C.H z : a.#.Y ;._ z F _ S D { ;.%.Y %.R.I.;.P._.P.=.",
"| l._ x r - n Z a. .Y a.a.j.' [ I A X.Y n x K T ] b.g._ ] l.Y @.P.].R.I.U.=.+.4 % / .XoXb.P.;./ _ ;.;.H D _ | _ [  .=.(._._.P.v.",
"_ _ $.Y *.| _ X.a.( n  .] w.w.n l - z Y I x L P [ ;.v.g.$.v.=.=.$.I.P.H.I.%.h D D { H.H.Y.*.;.`.v.P.P.P.| *.H.Y.$.g.I.Q.P.P.'.P.",
"=.v.)._.*X^.| S %./ k I / | F d b k r V I Y @.%.%.I.XX%XXX*XR.*._  ._ H.I.P.*.*.H @.D f d % b &.g.| *.T.T.P.H.H.H.P.H.I.P.P.P._ ",
"H.R.3X*X=X X;.H H : _ ' I ;._ z D H A D / ;.&.X.%.I.R.v.P._.P.;.$.=.( _ =.I b F f D ^ *.| b d Y A D %.M.;.C.R.%XR.a.U.H.R.).).I.",
"H.L.R. Xk.P.-.f % v Q.oXf.v.v./ I %.&.H D _ | I T  .a.v._.(.(.g.*.V. .Z r 5 d f 2 Z b b ~ R | P.I.'.;.M.C.;.@.C.H.=.V.V  .%XXX X",
"_ g.I x v _ h f Z { T.^.^.H.;.(.g.;.P.P._ | H.Y.=.=.I.Q.P.P.{.(._ _ *.H _ *.T.%XH./ d o O % z D | V.V.[.1X{.'.%XH.Y J w = t M M ",
"r A U x K A H *.H +.H z k d b &.v.;.*.R.T.I.H.[  .l.I.I.P.P._.|  .=.M.P. X^.@X&X~.S.F 5 5 r r r Y *.=.P.*X<X'.I.[ A K U M m I A ",
"L x I 8.T A H / z G ^ ^ ^ k % A L n |  .=.k.a.L r w k r I [ g.H.H.R.3X*X=XoXI.S.A.q.V ' T M q 9 w J j.t.Q.c.I x ( T P w.] T _ Y ",
"%.=.H.%.@.Y / I A D H =.H. .| P.Y J T J J T A i 8 6 5 = = x I 3.] c. X<XXX$.I V V ) / U i.j.U o.U ,.5.( j.E.' L T J T g.T x Y T ",
"j.a.g.' p.I.B.=.g.l.p.v.v.b.Q.L.n z t T 3.u.L w t z x v w w t J J K T T I * @ = q K I <.,.I Y u.K.n.w./ } Q.%.Y L w 9 S x Y v.a.",
"g.] u.g.$.P.R. ._ @.l.l.Y 8.K.K.I r t A L T u.T U ` l v w 3 e M J p a y - - - e 9 7 l U U x J b.f.j.c.U a.$.F ' U J r A T l.I.' ",
"%.T a.;.v.k.I.l. .H _ =.I n g.=.P L r r 3 8 t x U i.U n x r w J r X e K N q =   =   e K j.c.i.i.r.j.a.S.l.I V l.l.L J 3._.,X|.a.",
"_.$.a.] v. Xg.g. ._ | v. XQ.b.I v I P K J J P J P J u x x t V Y t = u a K 9 = = 9 8 r M U ] M M V 3.a. .r.[ n  .%.}.a.] v.a.f.a.",
"v.l.v.$.$._ g.I.a.g.H.I.%X X|.c.8.x t J J P J p M J K m e # w M J p J P s.t.C l M u w t V U U ,.M T I.8.[ [ F A O.%.H I g.( T l.",
"g._ ] =.Y %.).].I.R.H.P.%XP.b.I.A t t K K q p a y = t w w 8 = e t t e t K p.8.U T T i.` U J M T I.K.z.j.#.[ V A X.Y n x Y Y a.v.",
"P.g.%.(.l. .$.I.P.P.P.P.w.] b.u.r u M K P q u P U M M w & 8 B m w J e = = M x J U ' 8.y.u.a.U k _ P.c.a.] x l - b Y I x P P @.&.",
"%X XXX*XP.*._  ./ H.I.I. .] 5.J 9 e u J u r 8 M b.N.5.l x J t M U U e 8 e M U T T Y C J ' ( ` x Z @.#.| b d b r z V I @.@.#.%.I.",
").=.P._.P.;.| =.( _  .I I w.T s t # e M t t r u U ' U 0.!.I.5.w.[ J J t e x x r A _ I P $.<.] [ / v.I.I.I z D Y F F / ;.X.o.%.H.",
"g.v._._.(.v.| H.[ A w 8 8 M i 7 M V V U t w 9 w m U j.t..XK.] / I J ,.] U U _ A w x I I K A Y A H P.I.c.I.H.[ %.-.A D _ | / [  .",
"I. XP._.{.v.Y J J x x x v Y r   y U T T 3.U p t e T e.l.K.<.x K a.T 3.l.Y I Y Y T _ =.a.Y F / F A _ =.3.i.^.I.;.P.H._ *.H.Y.$.g.",
"H.c.[ =.$.J M I J m w # x I J u J K 4.c.i.] o.p.c.c.` / t.|.T P x e X.O.J Y #.3.a.v.l.' l.] | _ o.T $.v.8.K.Q.v.*.T.T.I.H.V.=.l.",
"i J J r q u u w x x e 8 # w t t r J ,.n.T w T b.c.c.7.I l.=.Y T M t 0 i x a.k.a.p.$.u.u.g.].B.$.g.g.v.j.g.c.E.8.%.(.;.C.R.P.I t ",
"J P P q p P M e e w # - B l w u e # = M x M i.b.l.l.t.w.$.F I a.U A J u.}.oXl.o.%.' g.g.$.P.R._ _ Y l.] l ] I.k.L &.;.;.&.T t q ",
"u J p 9 = J c.b.5.e e M t m M P t 8 e M U ,.i.u.U #. .S. ./ / P.g.i.T j.b.OXI.b.a.' $.=.I.I.l.g._ H  .v.r.] f.' 9 u J P s 9 8 t ",
"t M y t r J ] a.U ) r.f.U <.] K t e w t M t Y [ U z.I.] ] I b F &.(.I $.k.Y T g.P.a.g.%.P.l.g.k.[ $.H._.XX.XW.J 9 q u J p r 8 # ",
"m U e w 9 e V U ] t.&XQ.8.] F J T T V I Y A r A I a.l.' [ [ F X.&.H A I ' Y I.f.=.=.k.[ Y $.).Y.P.I.B.).%XI.}.U e # t M t t x x ",
"U T U M t r w U r.K.I.<.M K $.T ,.j.T Y Y Y I I ] 8.r.c.[ n l z Y Y x x K T =.;.=.I $.$._ v.P. XI.I.l.I.H.f.b.M e M V U t w w ) ",
"U 7.f.a.T u.w.i.( ( c.E.Y P L x o.&.J K T ' a.l.v.[ F | n k l & n I K Y Y o.g._.).).{.].l._ $.=.=.I.I.L.Y a.j.m - U ] T T I l V ",
"w.<.J x T b.c.c.5./ L.P.Y Y x e 0 A x %.v.j.i.a.a.] *.*.d z A z F I _ %.%.g.g.^.).I.).).C.%.| [ ( v.l.r. .l.U I v V ] 4.i.a.U 5.",
"] U A x 3.b.f.c.t.] $.F I a.U A t o.b.|.j.%.%.' g.g.$.=._ n _ %.S b _ -.Y Y =.I.;.v._._.P.=.*.l.F H k & w x T I W r.r.<.J x T g.",
"] ( I J 4.a.T #. .H.=.I ( P.a.T T j.N.,XI.f.] ' %.g.I.I.l.[ _ =.v.H H _ V.| [ ] v.I.P.(.(.;._ r.H Z D G | / I V v ( ] U A x i.p.",
"z x r & J i.3.c.k. .] I F Y g._.Y a.f.' ' f.P.$.a.%.I.H.g.k.[ | P.=.*.P.H.H.l.I.Q.R.P._.P.*._ %.%.P.T.R.:X;XL.( c n [ / A J 3.p.",
"5 & z 6 Y @.#.b.c.] [ Y b X.&.^ F Y $.I f.f.v.l.v.[ Y _ _.H.l.I. .).%Xb.I.T.H.l.H.P.P.P.=.| H.XX*X).=XR.R.F.F.) c k k c 6 & M M ",
"w x S o.k.I [ a.j.l.' V n A @.Y x x T T g.g.=.I =.$.Y v.). XI.R.l._.R.f.I.-XI.P.U.H.$X%X*XR.H.^.2X=XXXv.} } } W n l & & z z Y k ",
"F / Y O.] n b [ /  .I k l & F Y I I P Y %.v._.v._._.l._ =.l.l.H.I.k./ g.b. ._ *.( ( T.R.).I.I.H.I._.R.P.} W V c < k k n H O.l.v ",
"*._ D .._ c b _ _ *.d z Z r F I _ @.%.%.g. X%X].XX XV.@.| _ [ P.P.L. .l.U x w 8 M M J x u I l.%X(.;.Y.~./.!.n $ > x I / H O.[ W ",
"T.C.;.Z 5 n b.T _ v.F z Y @.S F | ;.X.Y l.R.;.v.(._.P.=.*.l.I Y n w v Y T x = = M t e w r M ` c.l.I.^.E.c.r.$ $ l V *.@.H ../ } ",
"] ;.Z % , r.>XoXI.P.=._ [ ;.-.D G | | _ [  .v._.P.(.M.;.| l.H r z z F n F I V U U T x t 9 w m 8.t.!.Q.T x I | ! B.D.P.(.-.z & n ",
"n H j G ~ | =. .H.| (.(.P.P.R.V.*.=.U.H.=.v.Q.R.P.'.(.*._  .@.@.P.U.;X;Xr.W < [ T 4.a.U P J U 8.) k.c.3.L ] =.| R n ] @.f % k c ",
"W *.*.^ H @.Z f 4 % F %.%._ V.R.P.P.H.H.H.H.H.P.P.P.=.| =.'. X).&XR.^.Y.F.) B w.5.4.T T u.c.n.j.) } ^.v.L L z H n c n H G G b W ",
"b ^ D z f G _ *.| k F Y A Y &.(.-.T.].].I.l.U.V.R.).).I.H.&X3X*XoXb.r.q.q.W W l.] I z x p.b.l.c.U ] $.F [ T n / v E { =.*.^ , c ",
"8 5 8 x z Z z b b R B.H.)._.=._.H.H.].]. XR.|  .#X-X*XI.r.S. XXX_.v.) V B V ] ` ] Y I U h.p.a.l.r.l.t 8 J K x , l v b G b b v w ",
"r x 9 I 7.Q ) W E B b F _ |  .=.| B.+X$X XR.H.l.H.=.P.P.) V I =.T.@X^.r.U I J T  .n t r K J r A } r.] K t 9 = e ; ; e w - e J U ",
"6 $.) ` r.) <.q.G.A.) $.'.].I.P.-X#X#XH.8.] l. X(.P.Y.^./.J./ ~ | S.] A x U [ T Y r r r 5 w 8 w x U U K K t e - * = q U V - # e ",
"9 x v M <.1.U C ) A.Z.r.).).XXI.Y.:X:XL.] I J ^.I.l.q./ o. .F z + - r r t P T #.a.P M K n V e 8 e y K p K J e * * * 8 9 x l e 8 "
};
