/* XPM */
static char *_fad9f2f3a254f34effde83b65b354dcoISdxajyfT3Ri3GL[] = {
/* columns rows colors chars-per-pixel */
"64 64 224 2 ",
"   c #28393A",
".  c #3E4D4C",
"X  c #3B4E51",
"o  c #3D5354",
"O  c #3D575A",
"+  c #3E5C61",
"@  c #434F51",
"#  c #435455",
"$  c #495656",
"%  c #425659",
"&  c #4A5659",
"*  c #455A5C",
"=  c #4C5C5C",
"-  c #495956",
";  c #515D5D",
":  c #5E5F51",
">  c #414B4D",
",  c #53625C",
"<  c #5C655A",
"1  c #4C605F",
"2  c #445D62",
"3  c #4A5E61",
"4  c #525E61",
"5  c #4C6164",
"6  c #4C656B",
"7  c #4C696D",
"8  c #466369",
"9  c #536464",
"0  c #5A6665",
"q  c #556966",
"w  c #5C6B64",
"e  c #52666A",
"r  c #58676A",
"t  c #546A6C",
"y  c #5B6C6C",
"u  c #5D716B",
"i  c #4F6B73",
"p  c #536D73",
"a  c #5B6D72",
"s  c #546E79",
"d  c #516772",
"f  c #567176",
"g  c #5C7275",
"h  c #55727B",
"j  c #5B757B",
"k  c #5D787E",
"l  c #4F7079",
"z  c #646D64",
"x  c #616E6C",
"c  c #6A7164",
"v  c #64726C",
"b  c #6C756C",
"n  c #66736A",
"m  c #72776C",
"M  c #73796D",
"N  c #7B7D6C",
"B  c #787667",
"V  c #637473",
"C  c #697674",
"Z  c #667A75",
"A  c #6C7A75",
"S  c #627679",
"D  c #637A7C",
"F  c #6B7B7A",
"G  c #697779",
"H  c #737D74",
"J  c #7A7E74",
"K  c #727E7B",
"L  c #757A76",
"P  c #636E70",
"I  c #827E6A",
"U  c #837D67",
"Y  c #817F72",
"T  c #7A816F",
"R  c #6C827D",
"E  c #758173",
"W  c #7C8275",
"Q  c #74827C",
"!  c #7B857B",
"~  c #7D897E",
"^  c #838475",
"/  c #8A8673",
"(  c #8B8975",
")  c #82867A",
"_  c #848A7D",
"`  c #8B8C7D",
"'  c #918E7C",
"]  c #928D76",
"[  c #8E917E",
"{  c #93917D",
"}  c #9B957D",
"|  c #9B957A",
" . c #81846F",
".. c #A09B7D",
"X. c #5D7A80",
"o. c #597781",
"O. c #637D82",
"+. c #6A7E82",
"@. c #727F81",
"#. c #658285",
"$. c #6D8384",
"%. c #6C858A",
"&. c #6E898C",
"*. c #688887",
"=. c #738583",
"-. c #7A8682",
";. c #748985",
":. c #7C8A83",
">. c #71868B",
",. c #748B8B",
"<. c #7B8D8B",
"1. c #78878A",
"2. c #75918D",
"3. c #7C918E",
"4. c #748D91",
"5. c #7A8E91",
"6. c #759293",
"7. c #7C9393",
"8. c #7C969A",
"9. c #7C9A9B",
"0. c #7C9B95",
"q. c #6B8E90",
"w. c #7D9FA0",
"e. c #7FA1A3",
"r. c #838C83",
"t. c #8A8E82",
"y. c #828E8A",
"u. c #898F88",
"i. c #828781",
"p. c #859187",
"a. c #8C9284",
"s. c #84928C",
"d. c #8B948B",
"f. c #8A998E",
"g. c #939484",
"h. c #9B9683",
"j. c #969985",
"k. c #9C9A84",
"l. c #92968B",
"z. c #949A8C",
"x. c #9B9C8C",
"c. c #9A9788",
"v. c #838F91",
"b. c #839593",
"n. c #899693",
"m. c #849996",
"M. c #8B9A94",
"N. c #829699",
"B. c #849B9B",
"V. c #8A9D9B",
"C. c #939C93",
"Z. c #9A9E92",
"A. c #929E9A",
"S. c #909790",
"D. c #918F80",
"F. c #A29C82",
"G. c #A39D89",
"H. c #A09581",
"J. c #A19F90",
"K. c #86A09C",
"L. c #8DA19D",
"P. c #8CA097",
"I. c #93A194",
"U. c #9CA294",
"Y. c #94A29C",
"T. c #9AA59C",
"R. c #9BA99D",
"E. c #9FA08E",
"W. c #A4A38C",
"Q. c #ABA389",
"!. c #A3A494",
"~. c #A3A59A",
"^. c #A3AA9C",
"/. c #ABA895",
"(. c #B4AC95",
"). c #B1B09E",
"_. c #859EA2",
"`. c #8A9FA0",
"'. c #85A2A4",
"]. c #8CA2A3",
"[. c #8CA6A9",
"{. c #8DA9AD",
"}. c #93A5A4",
"|. c #99A6A2",
" X c #94A9A6",
".X c #9CABA3",
"XX c #91A7A9",
"oX c #94AAAB",
"OX c #9BADAB",
"+X c #9CB1AE",
"@X c #96B0AF",
"#X c #94AEB1",
"$X c #9BAFB0",
"%X c #96B1B4",
"&X c #9BB2B4",
"*X c #9CB6B9",
"=X c #9EB9BD",
"-X c #9BB5B7",
";X c #8EA9B0",
":X c #A3ADA3",
">X c #A8AEA2",
",X c #A3B1A6",
"<X c #ABB2A5",
"1X c #A5B2AA",
"2X c #ABB5AC",
"3X c #ACBAAE",
"4X c #B2B9AC",
"5X c #A2B5B3",
"6X c #A5B8B3",
"7X c #ABBBB3",
"8X c #A3BABB",
"9X c #ABBDBC",
"0X c #A7B5B5",
"qX c #B4BCB1",
"wX c #B0BCBC",
"eX c #B7C3B8",
"rX c #C2C9BC",
"tX c #A8BEC1",
"yX c #AAC1C3",
"uX c #ABC4C7",
"iX c #B5CACC",
"pX c #BDD3D3",
"aX c #C4CDC4",
"sX c #CAD8D3",
/* pixels */
"p t p 5 f 6 i p f k o.h s f h l s + 8 h 6 2 6 p g t 9 9 9 9 0 0 r y y y t 9 9 9 * o % o 3 g t q u w u y F Z = # & 0 x z z m W T ",
"5 j %.f p 2 7 p f h o.h h h o.h i 7 7 8 2 2 5 5 3 5 9 r y y v V V g y r t t t y % % 5 * 5 t 5 = y u v q y y $ # & 0 A H L W W E ",
"6 O.&.j D j f p f k X.k o.o.h s 8 f 7 + 8 7 6 2 o % = r x x v C V y t q t t q 9 * = t 5 3 5 * = 9 v Z r y V e r 4 P K -.~ ~ ! E ",
"p D O.j O.O.X.j f k X.k h h i 7 + i 6 + p f t 5 = * = r x x x v y r q y y r 9 1 9 5 t 5 3 5 3 q , z C y V @.G F y C K K K Q Q E ",
"t j k D k f p X.p k X.k k f i 7 8 7 2 O 7 t 5 t S 9 = 9 V V x x V v y v V V r 9 9 * 5 5 5 5 5 y w Z Q v C F y r a S G F C A Q Q ",
"k O.j #.O.k 7 p p f X.X.X.k f i f 6 O o * * * e ;.y = 9 C C C C C V y y y g V V 5 % = 5 e t 5 y A H Q A G G 9 4 e a V G F R R R ",
"O.#.f O.O.%.p t p h k k k k f p j 5 * % O * 6 t $.t = r C C C C V y r r r y V C 9 * 5 9 e e 5 g H H Q H Q G r a r a S G F F R R ",
"t #.k j t O.k O.p j k j j f p t t 2 5 5 3 t S g C 9 = y C C V C y y y y y y V S S 9 9 9 9 5 e F A n H K Q F r G g g g S D D D D ",
"* 2 D j p O.j j p p f j f f p 2 t * 9 g t g F y 9 9 $ y V y G C y y 0 ; 9 y V y 9 3 = = 5 t a y z n n H -.F y r y a S D D D D O.",
"5 5 k j j %.D p f 6 p j p p p * = 3 y S S =.1.F y 9 ; x G V x 0 9 9 9 ; = 9 9 r 9 3 * * 3 9 t r 0 z w v C y = = a g D D D D O.O.",
"j O.6.4.6.'._.4.4.O.>.>.t 3 3 X * t g y g F =.F r = = 9 x y $ @ $ = = = # # = 9 r 9 = = = 3 9 9 y v v C F C r y g j D O.O.O.O.O.",
"h #.8.8.8.[.#X{.oX[.=XoX$.g g % % 9 9 9 9 y V G 9 # ; 4 y V = ; $ $ $ $ # # = 9 9 9 5 3 3 5 e t 9 0 y V F g 9 9 t f j O.O.O.O.O.",
"k O.%.4.6.[.=X#XoX&XtX8XoXoXV.g F F C C V 9 9 V # . & & 4 y ; 9 = $ $ $ & = 9 y 3 4 9 9 5 9 e y = 9 r g S t % % t p j O.O.O.k j ",
"4.#.k &.B.#X8X#X-X=X8X-X8X8XV.V V.b.n.|.M.=.=.b.$ $ 4 ; & $ > @ = = = $ & 4 r y r r r 9 3 * = 3 5 9 y g S t = 3 g f j D D j j p ",
"&.X.p &.B.'.=X&XyXiX9X-X&X`.$.G b.:.n..X|.|.0XwXG 1.y.v.-.C x 9 = 0 y ; = 9 y y V V y 9 * % % 3 3 5 5 5 t e 5 t j g j g j j f p ",
"#.O.O.8._._.tXuXyXpXiXyXOX;.F V.|.y.s.n.-.y.|.}.y.|.:XwX0XA.A.-.0 H Q v 0 x C V r r r 5 * * e a a a 6 5 t t t D D j f p a f j g ",
"O.&.>._.8._.[.iXuXuXsXpXB.=.M.M.I.T.:X-.A -.}.<.y.n.Y.0XaXaXqX<XC.Z.d.r.Q v w - # - = * % % 5 6 a t 3 6 t p d p j p p a g g a t ",
"j #.>.#.4.8.[.=XuXyX8X8XV.:.:.M.f.R.2X:.A =.V.<.=.s.n.T.qXeX<X^.U.Z.z.d.d.d.! A y q = * % o O O 6 3 2 3 7 p s s j s p p p a a a ",
"j $.>.f >.8.#X#X{.8XOX8X}.:.v f.3XI.C.:.K y =.b.<.b.s.f..X2X<X^.U.>XeX<XS.p.K <.C u 9 5 5 5 * o % 2 2 3 7 i p p i p f a a t 9 5 ",
"a +.%.D 8.[.%X#X=XyX].OXb.s.Q Y.3Xr.H Q Q w F b.b.b.:.r.R.qX4X^.U.l.<X>X1X1X! H Q C V S G S t 3 * 6 t t t p p i i p p p t e e e ",
"3 g k >._.%X{.{.[.oX`.8XoX6Xs.K r.! Q n Q Q y.<.-.-.Q y.2XrX4XU.z.t.:X:X2X2X! H :.=.Q R F G g t a D D j j #.%.%.O.X.f p t t g S ",
"% t g B.XX=X'.[.#X[.>.;.G L.Y.V.r.r.:.C Q F s.V.K -.r.R.aXaX^.t.a.z.4X2XR.C.! p.:.Q A V V V S S F >.$.D O.8.[.{.8.6.4.*.#.D g y ",
"% e D B.&X=X[._.4.[.B.1.;.<.3.Y.|.f.:.Q <.C G s.K :.C.qXaXeXU._ a._ t.C.:X:Xd.:.A n z w x v v v S $.R g D 8.[.'.{.'._.9.8.&.D t ",
"% 9 $.,.&X#X[.8.4.#X].B.&XV.=.L.M.M.y.Q V.y.C ; v Q C.qXaX4XU.z._ ~ ! z.Y.d.! z z w w w v x w , 9 V Z u g >.4.%.-X{.9.6.2.7.2.,.",
"  y y ,.oX#X8.'.#XB.V.].V.7.b.m.R b.s.Q |.s.A C b -.Z.2XeXqXU.W _ a.a.M z H H H z n w w n z , z Z , Z 9 $.3.$.6.%X[.B.B.B.7.2.7.",
"X t S ;.>.B.6._.&X%X#X].N.m.m.3.;.m.3.<.b.y.A K -.:.S.<X4X^.a.! b ! d._ ~ d.! H < b A b m b b ! w u w , q F 3.@X8XoXV.'.oX+X].2.",
"$ o t S S B._.[.&X&X&X[.8.8.m.7.3.V.3.b.-.<.H :.y.d.C.T.U.l._ ! z n H b J t.W b < c z c ! a.t.r.H :.w v 9 Z m.&X*XoXV.V.@X8XXX,.",
"X   3 t D [._.oX#X'.[.[.B.,.7.V.3.V.m.s.K -.-.r.~ S.U.d.a.z.a.W M b b < z W H b c c z m _ l.a._ t.p.A A Q M.L.oX+XoX}.}.oXoXV.7.",
"# . t 9 +.B.4.[.{.'.[.[.B.2.b.V.,.B.].;.=.Q y.:.H u.C.d.a.z.l._ ~ :.y.! ! t.W M J m J ` t.) ` a.t.J ~ H Y.7XOX+XOX XOX5X+XV.3.<.",
"= 9 G t S D %.#X%X*X=X[.8.B.V.3.,.B.L.R <.Q y.:.J J i.C.U.l.a.d.r.y.f.:._ a.W W W c M a.g.` t.g.z.) U.! Y.2X|.5X XV.V.OXOXb.F C ",
"9 = S y a g B.%X*X8X8XoXB.'.K.,.7.B.3.=.<.Q K r.~ L W z.U.a._ a.r.:.r.! W t.! ! ) c m ` g.j.j.` z.z.Z.r.p.Y.Y.OX|.B.b.V.M.:.F C ",
"r # 9 g g O.&X[.=X#X#X%X].V.B.7.B.V.R 1.<.Q z d.) W W t.l.l._ W r.r.d.t.a.z._ _ ` ) g.z.( ` g.) J a.J ~ :.Y.|.OXOXOX}.b.<.:.<.b.",
"4 3 y $.>.%.4.[.%X*X[.9.[.XXb.K.m.m.3.<.s.p.r.y.d._ W m l.a._ W _ t.z.U.U.g.[ [ g.g.{ ' ' ` B : M M b z b y.|.OXA.0XV.A.M.y.|.y.",
"9 9 y F >.>.8.{.;X'.'.'.'.XX].B.m.L.P.V.f.! ! l.C.a.) M z.a.` _ T ^ [ j.j.g.{ j.x.k.h.g.j.g./ B B ) l.d.d.S.T.|.n.Y.A.A.|.y.A.-.",
"a y a S +.4._.[.{._.[.oXB.]. X3.Y.P.s.p.:.b ! U.Z.x.) M z.a.) ` g.j.x.W.W.W.W.W.W.k.k.k.h.h.' ' N j.^.~.z.C.:X2Xd.y.T.S.:Xu.d.) ",
"y y a g +.7._.[._.'.].].7.3.V.<.Y.p.Q ! r._ t.Z.l.x.) N j.[ N  .` { h.k.F.} k.F.F.F.F.Q.G.h.} h.I j./.x.` a.^.qXU.i.Z.z.~.z.t.u.",
"5 9 y g %.B.'.'.6.XXN.,.1.$.<.<.! ~ ! _ C.U.l.` ` g./ ( j.{ N N N I / ] ] | ....F.F.Q.(.(.G.H.F.U } /.G.` ` c.~.~.u.l.Z.l.Z.^ g.",
"5 t g +.,.8.N.7.B.-X7.F =.C =.Q b W ) _ l.x.j.` ^ ` ( j.k.x.` / / ( ] ] | F.Q.Q...F.Q.(.(.G.} } ] G./.G.' ` a.g.x.g.a.!.g.!.Y g.",
"e t D >.5.5.,.1.].oX=.F Q Q s.H J W W ^ [ j.g.g.' ` ` W.h.W.k.{ { { ' / ( { } } ] } Q.Q.G.h.' ( } Q./.x.g.g.l.z.l.l.a.Z.a.x.` g.",
"5 e S ,.7.5.<.<.b.<.r V C :.|.H W N N ` W.x.{ [ x.[ g.!.{ W.!.g.j.g.( I I ( ' { ' h.k.j.g.j.` ^ / j.!.~.Z.Z.C.C.z.z.d.l.d.l.l.z.",
"2 5 D $.$.5.<.=.<.=.x -.Q y.s.~ ) g.{ j.c.g.j.` ` U.N j.c.[ x.z.Z.t.N a.g.j.).x.W.g.U.x.a._ W z._ g.U.^.^.C.f.f.s.s.s.s.f.M.S.d.",
"6 p $.>.1.b.<.<.F K v :.:.A.C.r.z.G.j.j.j.c.!.x.) ^.t.g.) ` g._ r.< H ) _ Z.z.j.t.) g._ ! ! ! C.z.U.:X:XT.f.s.s.<.b.b.b.b.M.M.n.",
"p f >.,.5.b.:.:.Q -.K r.r.C.C.J g.J.x.!.!.U.U.g.z.^.d._ M W W t.p.n M.^.l.z.a.t.a.a.l.~ H ! :.I.I.T.:X,X|.b.<.3.<.b.V.V.V.V.V.V.",
"p f %.>.<.3.Q Q y.d.r.d.y.r.y.H J ` l.~.^.U.U.d.R.C.d.d.! E n p.Q n H T.d.t.~.t.g.l.l._ ! p.M.Y.Y..X2X7X.Xm.3.3.,.8.`.'.V.V.V.V.",
"p j %.$.3.<.A Q y.y.d.T.l.J i.) M ^ ^ ` a.z.:X.XY.f.V.Y.n.n.C <.! z < ) _ ` ~.` ) t.) _ p.C.R.Y.3X7X7X7X+XL.b.7.,.b.V.`.V.V.V.m.",
"j #.&.>.b.b.F :.~ ! d.T.C.b J J ) ` ^ ) _ p.R.R.R..XY.s.<.}.<.:.! M z.Z.g.U.c.G.( [ ) _ d.I.R.I.eX3X1X,X|.Y.V.V.b.B.V.L.L.L.V.m.",
"X.*.&.>.V.b.Q p.) ! u.z.l.b J L ! a.t.a.p.p.I.P.+X6XL.;.R V.<.:.< M !.x.c.!.G.(.h.k.{ j.x.z.R.I.3X,XR..X.X|.L.V.L.].L.V.V.V.M.s.",
"D %.%.$.B.b.K d.u.) t.t.u.J d._ J _ _ p.f.M..X.X X+XB.b.,.<.G v H d.M M t.j.!.j.j.x.[ x.U.z.^.R.eX2X,X2X3X.XP.s.Y.V.m.b.b.b.<.=.",
"$.1.,.,.8.3.R A ! t.l.z.a.t._ H ! ! ! ~ p.V.L.V.].L.2.;.$.F ,.<.b.:.Q ! y.a.a.a.l.a.x.d.z..XC.C.1XeXY.2XR..Xb.s.M.b.<.<.3.3.3.,.",
"A ;.<.7.B.8.1.<.r.a.l.g.a._ M z M L ! r.s.M.B.b.B.L.B.K.m.2.;.Z =.=.=.:.-.~ y.z.C.a.d.r.d.T.Y..XeX:XI.T.1X<.<.b.s.b.B.B.B.7.,.,.",
"Z ;.3.7.9.8.3.s.d.z.a.) ` W c z b L ~ r.s.M.b.<.7.B.7.m.B.m.m.=.F Q =.:.~ ! y.z.U.d.p.r.f.|.OX7X3XR.C.Y.s.Y.M.V.m.L.].V.m.8.B.L.",
"R ;.<.3.8.7.1.<.r.l.) N ^ M z b ! ! :.y.M.V.B.3.,.7.,.;.<.3.m.3.F A K ~ r.p.p.d.C.y.:.:.s.Y.OX9X,XI.C.Y.:..XM.P.V.L.L.B.7.b.V.[.",
"=.,.,.,.8.7.;.-.Q t.W M W m z L r.r.y.f.Y.|.V.<.;.7.<.<.;.R -.F A A L :.p.p.p.d.C.f.:.:.<.b. X5X1XQ V.s.M.Q :.b.b.V.L.V.B.b.7.<.",
"-.,.,.2.9.8.<.<.H r._ ) _ J H ~ y.p.M.Y.OXOXB.;.,.7.<.<.=.F Q Q H Q r.y.r.:.y.f.:X1XY.M.7.b.OX5XM.-.M.n.s.H Q 3.}.|.}.V.m.B.8.,.",
"Q ,.,.2.9.8.7.s.Q ! _ _ i.~ :.p.s.M.Y.|.OX XB.1.7.7.=.1.;.R s.M.p.p.d.d.p.r.r.f..XeX8X+X'.V.&XOX:.Y.V.Y.s.s.<.M.OXOX}.B.b.V.V.B.",
"R ,.2.2.8.6.7.b.Q H M J L Q y.s.M.Y..X.X}.].V.b.m.3.$.3.s.:.b.C.R.S.a.d.S.M.p.<.<.5X8X-X[.B.[.B.V.A.|.|.6XZ s.}.V.}.}.].V.].V.m.",
";.2.7.0.'.9.&.;.Q Q ~ W ! C :.<.<.M.1X5XoX}.].V.XXB.b.3.b.|..XY.Z.t.C.t.:.f.:.V.6X8X5XXX_._.[.oX3.s.b.b.M.M.V.V.V.V.V.V.V.V.V.].",
"2.0.7.6.8.6.6.b.<.H Q :.y.v K <.=.b.}.&XoXL.OXXX$X].b.<.b.A.Y.M.d.a.^.C.d.Y.b.OX9XtX8X=X&X#X[.V.+XOXY.b.M.V.m.;.V.L.}.}.}.].}.}.",
"3.B.0.6.6.6.6.B.<.H ! :.y.C G <.=.7.V.5XoXB.XX].oX}.V.<.-.y.C.A.y.a.R.C.s.V.m.OX9X8X=X8XyXyX&X_.OX XB.<.V.+X}.<.b.V.V.].].].].].",
"2.B.K.9.w.9.6.8.<.-.r.L -.-.=.$.$.;.}.&X}.B.N.`.].`.b.=.-.y.n.A.d.d.T.f.:.b.b.oX8X&X[.{.*X8X#X'.&X XB.b.L.OXV.$.=.=.<.<.b.b.B.N.",
"*.0.9.w.'.'.8.6.<.Q y.A -.y.<.1.=.F XX}.B.'.7.XXV.N.=.F <.n.d.d.C.Z.T.M.b.V.].oX8X#X'._.'.].B.5.}.V.b.V.oXoXb.=.F F $.$.<.b.b.b.",
"R 2.2.6.9.e.9.7.7.V Q A y.v.1.7.7.;.}.N.,.B.5.'.1.N.<.K =.Q ! d.r.d.M.M.V.}.oXoX=X&X#X{.[.].B.1.1.;.=.B.oXOX].b.F =.=.=.<.b.V.V.",
"R 2.q.*.q.6.6.6.=.0 A x -.<.@.>.7.B.V.B.,.4.8.5.G B.V.-.@.C A d.H :.<.s.m.].oXoX&X*X=X=X8X&X].b.B.N.b.N.].}.V.<.=.1.<.=.<.V.V.V.",
"R 2.2.*.*.*.*.%.y , C ; C y.+.g $.L.7.V.8.>.].$.;.b.=.K y.-.A K Q s.s.3.b.`.&X%X%X*X=X8X8X=X}.b.OX$X}.B.].$X}.<.=.1.<.<.<.V.V.b."
};
