/* XPM */
static char *_a2cad69af2a40f1edd39e9e09be3340rMIvd2nExejAhXDv[] = {
/* columns rows colors chars-per-pixel */
"64 64 83 1 ",
"  c #2B2B26",
". c #2D2E28",
"X c #2F3028",
"o c #33342C",
"O c #38382F",
"+ c #373732",
"@ c #3C3C33",
"# c #3E3E38",
"$ c #3F4036",
"% c #414137",
"& c #44453A",
"* c #47483D",
"= c #494A3E",
"- c #444540",
"; c #4C4D42",
": c #4E4E48",
"> c #4F5044",
", c #4F5048",
"< c #525246",
"1 c #555649",
"2 c #57584A",
"3 c #5A5B4D",
"4 c #5D5E50",
"5 c #5F6051",
"6 c #636454",
"7 c #676857",
"8 c #686857",
"9 c #65665A",
"0 c #676858",
"q c #6B6C5B",
"w c #6F705E",
"e c #70715F",
"r c #6C6D62",
"t c #737462",
"y c #777865",
"u c #787966",
"i c #777869",
"p c #7A7B68",
"a c #7B7C68",
"s c #7C7D6A",
"d c #7C7E6A",
"f c #7E7F6B",
"g c #7E806B",
"h c #7F816C",
"j c #7F8071",
"k c #80816D",
"l c #82846F",
"z c #84846F",
"x c #838570",
"c c #848671",
"v c #868872",
"b c #888A74",
"n c #898B75",
"m c #8A8C76",
"M c #8C8D76",
"N c #8D8F78",
"B c #8E9079",
"V c #8F907A",
"C c #90927A",
"Z c #92947C",
"A c #92947D",
"S c #95977F",
"D c #96987F",
"F c #929380",
"G c #969880",
"H c #979981",
"J c #989A81",
"K c #9A9C83",
"L c #9B9D84",
"P c #9D9F86",
"I c #9EA087",
"U c #9FA188",
"Y c #A1A389",
"T c #A4A68B",
"R c #A4A68C",
"E c #A6A98E",
"W c #A8AA8F",
"Q c #A9AB90",
"! c #ABAD92",
"~ c #AFB295",
"^ c #B1B497",
"/ c #B4B699",
"( c #B5B89B",
/* pixels */
"Mzdtw*ya3<5dCu2<6;3666pk<323t2@@6t;666a63=o3u<2dxa3q=1d7*6ttt1q3",
"Hmktt;at623vSx3;6=<663yu<623t3@@6q<330d63@O6t;3tgl36>1h02qtdu<e2",
"ISvdt<du637SIJ0<6>1066kt6626t4@%4u566qd06@@07&3uhl6613d05tuda<a6",
"IPNvy1kd46wJELq2623060ku2620t5%%6p606wk0q*;q6*4ykvy0<6yq3qyly<u0",
"YSNvd2hu36yIQH6303460wyy<31tw3%&6t6q6qv0q*;q6*77hnkt>6ye3eyCu1yq",
"TAmnh3kt26uYQH66q6067qtt151yq3%*600t05x6q*;t6&06axma16tq1ytAk2t0",
"RBvxa5kt26dTQK0007q35eqq262dq2&=36qyt3k60&1a6&00ddNd27q0>twNk<qq",
"Yxlyy6kq20hTEKqqqta23t7t232kt2&;20tad4g66%<x6&06yhmk2000;0qvh<0q",
"Phhyt7xq4qkRRJqtyqt23t6t162hp2&;2qyah5a66%;v6*06wkml1q60;40dh<6q",
"Jddaq5v00wxRTSqthq033t6t506vd2%;20yhh6y66&*k6=06qhma1056;20td26q",
"Hhu076n60wlYPAetkqy63w6t066ma2%;26uhd6y22&=a5=06qdCd1036<16td230",
"Sgt606n66exPLSttdqh65e60463nd2&>26aahqa22*3u3=04qyxa<626;16tp<10",
"Ahq63<n63tvJJHtwath34tqq252kk3&<16dyhtd23=2p6;q36tha<020<2qyt110",
"Sk031<v72ymDSAqtvdM43ty0231yg6&126hqddy52==06>t23txu<02q22qut616",
"Jx661=kq1uCAANqumkK62tt0131tu6&126kykly52=&00;y33ekt1q2q31qky016",
"Jv6e3&aq<dABAMtuCvIy1yhq<21ep0&166xukxt22;&56;a53qgw1w2q6;0nt014",
"Hv6d1%uw<xANCvyhBD~n2pkw223qky&106xynvt>22*16;a36tk01e2wq;0Bt023",
"Sv0x2&yw<vHnmkaMvI^M3kyq226qxh=<w6xyvvt<21%;6>p3yah61q2ww;6Ct025",
"Axqk3=tt<nHxxddSkT/x3xpq456qkl;<t6xuxkt<51O;5<d6kkd0204yt;6Se042",
"Sxtl2*qt>vAxlhvPdT(n5xaq550qnx;>y6kpAky1e3O261a6nma6<66kt>5Hw654",
"Sxku1*0e;xAlduNTdY!k0dww660tAN<;y6dyMka3h4@;62a5AHp6<66nu<3Aq565",
"Hxk6t56q;hAkdtBEgJLywdqw667yAJ1;q5uyxhu3k3@=q3g5SKh5>60xu13A0336",
"Dxntvt6q;dCkdwKQkNn60gqtq66uDJ2=02tydgu5x2@<w6h5HPk4=3qnd33A6326",
"JxAdB00q;uChd0P~xxn30hqyt06yNA4;q6qt0kd6M2@2t0h5HUx0;2qBk63A5225",
"LvAlSq60>tCpa6J!ddk60y0yuq6tvH6;yw6e2hv0A<@6kqd3BInt<2wNd02A5235",
"KmAHEk00<wByy6TQatt00w0tdq6tmP6;ut303am6A<%6Btp4ATBt;2qxuq2A5162",
"ANSYQaq6<qNtt6T!dq66teqpxq5tCE0<ut166un0m=;7Ayy4JESa;1qkuq2A6262",
"BNARWyq5<qmtq6LEu712aetvxw2wCWq;ue<26dnqx&46Nhy3KQKv>>0uky6C0163",
"kmSTTdq2>qmtw7SIa6;2ktdHMt<qCEq;pt<<6xm6v306nvd4AQPm2;qtkd6h0203",
"unHPDy0<<entt0NIn0;2kykSBt>0vIt;uu<=3nA6k0q2xmk6nWIB3&6axh4q6<q3",
"yxKPPhq<<tntq7BIHq;>aaxmAt;0kHt<kk2*1hx5y0y<uBd2lEYN2&6phk666;q4",
"0dPITk0><tvw60NPLt>*qxxMHq&0yNd6Nn3*<dl3u0t<yCa;kTIJt;0ptp666<w6",
"6tKAJtq;1udu6qAJLe;*0mnMHq&60dx0nv6&=tk6y2t1ySd=nTYPv<6t6tq666t6",
"47Adn07<1ute27lmJe&&3nnSSq;06qhylv0&$6t4t2u1qvu&BEYIx=6w0yw626t5",
"1;vud66;2k06;6dxJt&&4dgSCe16340tav6&@3e2t6y37dk@lPPLd=006et06103",
"&&gdt16;5B6t><elSy&%3euMn0363<60txt=@2020<3258kOqxnMw1q54twq6163",
"%=taq<313N2y<%6uMq=;<qqxk6235;6q0tt=%<3<6;=206doetyky3066yq25206",
"&&6y2=221d&u&O12kw=1111tx311<=400d0&==2=3<6761yOe6uyq1q6<5q;33q6",
"@o=72*12<kot@o5<n6%42&O6y;16<&1q2y<@=@2%3;<621hX63w63%1<266&>106",
"O O261;1=h.t<o;<l5%6<*o42=26;&141q@@=@2@41%664d.43262@1*6d2@@=56",
"*@o461;;<n;x0%*0m6<012@q&+15:*=610%@@@2o64;40qtO<;>02>4;yx>>::60",
":;;yq4<,5B1Ai2<tAt9i49:y2&55<::t6r:-#;6@0q449dt@--1r9q1:dn2q6290",
"149xt624qB2Scq9pHatBqt9t02p0222h6t94;2q*qdr9tnt@429idxr9hAqdxrtq",
"25txtq66tS2HBtyhHkyStdyxu2xt246x3ttt240*6cdtjFt@q2tcxNcetmtnKjxy",
"25txtt64yA3HSyyyCkyHthdNx<my336k6eyy36q=6mxtxHq@02pNdHAt0kwvPmvy",
"35txpd02tA2HJyyyCkySyNnxn2Bp356d60yy66q;5klqpSqO04dAvHAw0n6hLmky",
"56tdudq3tm1HPydhSkyBuHCdHqAn365hq6tpw0q;3ah0uAw@06hSSAn00n6nKmdt",
"46wttdt6yn<AKyxvCkuBxJBymwHN663dt3ydtqt<3uh6ant@76xJPIn60nqAKmyt",
"36qwqhy6tn<BSuxxvauBnHAqx6Cm443wt<tlyty<1td6dkt;06xJTRn60v0nABte",
"36w00dpwqh;MAahxtqymBAA0n4Mm2225q=ylppd<<wy6uaa306xSIIn50xqnABtq",
"66t66dhdwu;MJdhMwqdxAmB0d1vn2222w;pHhtd1;qt6uga4q6xBnvv3qhqCHByq",
"60y06akxqy;vUxkHq0hdNvAwp2lM6226d=hPkyv2;6e6aay2t6xmdyn<6dtJBClw",
"0qyq6ykn7w=kTmuHq0haCxStq1km6120k=kMtyn626q3yeu3u6xnytm<6duBmAh0",
"0ydy0wlAq0;kRN0N0qnaAnJp52yx6<17k1kvqyn76662t0t4k6kvytC>6dkvmAh0",
"qdNu66lHq3;uTN6m0qByCvBd34tlq<16h3dk6wl6u662y7wtv6hntwD;5anaxBkq",
"yxna62kJ4=;yRJ6NwqAtCkvl26wkq<13a2uk6qh7u332t0qtN6dnqqS=5uMtxnk0",
"umndq2xS6&<aWT3my0AwNukx20qgt<11d2txywp6t122yt00B0gnqqS<qyBwxhh0",
"hBNvq3vS6%1dET2nu6xqnylN10qkg<<<h6qvkqw6t>15yu06N0dvq0A3ytNtxad0",
"kAHAq1vS6%2xRT2ky<tqkukB<00gx1<>a66xaqq6q;<6dy6tCquvq0C2qqMhutd0",
"vSUSq<vS0%2xTT1yq;qqddkn;06uv2;;uw6lt6w062>qvw0hHtyvw0B26qmxuqd0",
"MKISt;xCq*1kTY2tq>tqddvx;02qv<*=yt3h06w646;yN00vCttvq6x44qmCd0kq",
"lCSAd;vv6&1kYP200;q0twxk;020k<%*wt1yq0y646=tH60nBtwv06u62qxAa6gq",
"nNxxy>xd3%3kJC<36&66q0uu;632y<%$0t<q00d65<@5N66gntqv43a5=7lnq4aq",
"nkvht<ud4&3xMk<13=6266td<222u<@O7t;666u63<O2x26dxa0k22k3$6da61t6"
};
